<?xml version="1.0" encoding="UTF-8" standalone="no"?>
<!DOCTYPE svg PUBLIC "-//W3C//DTD SVG 1.1//EN"
 "http://www.w3.org/Graphics/SVG/1.1/DTD/svg11.dtd">
<!-- Generated by graphviz version 2.40.1 (20161225.0304)
 -->
<!-- Title: example Pages: 1 -->
<svg width="624pt" height="188pt"
 viewBox="0.00 0.00 624.01 188.00" xmlns="http://www.w3.org/2000/svg" xmlns:xlink="http://www.w3.org/1999/xlink">
<g id="graph0" class="graph" transform="scale(1 1) rotate(0) translate(4 184)">
<title>example</title>
<polygon fill="#ffffff" stroke="transparent" points="-4,4 -4,-184 620.0073,-184 620.0073,4 -4,4"/>
<!-- 2017 -->
<g id="node1" class="node">
<title>2017</title>
<text text-anchor="middle" x="27" y="-13.8" font-family="Times,serif" font-size="14.00" fill="#000000">2017</text>
</g>
<!-- 2018 -->
<g id="node2" class="node">
<title>2018</title>
<text text-anchor="middle" x="58" y="-157.8" font-family="Times,serif" font-size="14.00" fill="#000000">2018</text>
</g>
<!-- 2017&#45;&gt;2018 -->
<g id="edge1" class="edge">
<title>2017&#45;&gt;2018</title>
<path fill="none" stroke="#000000" d="M30.8943,-36.0896C36.1882,-60.6805 45.7087,-104.905 51.9406,-133.8531"/>
<polygon fill="#000000" stroke="#000000" points="48.5476,-134.7229 54.0738,-143.7623 55.3908,-133.2496 48.5476,-134.7229"/>
</g>
<!-- 2019 -->
<g id="node3" class="node">
<title>2019</title>
<text text-anchor="middle" x="90" y="-85.8" font-family="Times,serif" font-size="14.00" fill="#000000">2019</text>
</g>
<!-- 2018&#45;&gt;2019 -->
<g id="edge2" class="edge">
<title>2018&#45;&gt;2019</title>
<path fill="none" stroke="#000000" d="M66.075,-143.8314C69.6102,-135.8771 73.836,-126.369 77.7456,-117.5723"/>
<polygon fill="#000000" stroke="#000000" points="80.9532,-118.9729 81.8163,-108.4133 74.5565,-116.1299 80.9532,-118.9729"/>
</g>
<!-- 2020 -->
<g id="node4" class="node">
<title>2020</title>
<text text-anchor="middle" x="99" y="-13.8" font-family="Times,serif" font-size="14.00" fill="#000000">2020</text>
</g>
<!-- 2019&#45;&gt;2020 -->
<g id="edge3" class="edge">
<title>2019&#45;&gt;2020</title>
<path fill="none" stroke="#000000" d="M92.2711,-71.8314C93.2336,-64.131 94.3782,-54.9743 95.4479,-46.4166"/>
<polygon fill="#000000" stroke="#000000" points="98.9309,-46.7702 96.6983,-36.4133 91.9849,-45.9019 98.9309,-46.7702"/>
</g>
<!-- 201701 -->
<g id="node5" class="node">
<title>201701</title>
<ellipse fill="none" stroke="#000000" cx="184" cy="-18" rx="40.0147" ry="18"/>
<text text-anchor="middle" x="184" y="-13.8" font-family="Times,serif" font-size="14.00" fill="#000000">201701</text>
</g>
<!-- 201702 -->
<g id="node6" class="node">
<title>201702</title>
<ellipse fill="none" stroke="#000000" cx="282" cy="-18" rx="40.0147" ry="18"/>
<text text-anchor="middle" x="282" y="-13.8" font-family="Times,serif" font-size="14.00" fill="#000000">201702</text>
</g>
<!-- 201701&#45;&gt;201702 -->
<g id="edge4" class="edge">
<title>201701&#45;&gt;201702</title>
<path fill="none" stroke="#000000" d="M224.1953,-18C226.6721,-18 229.1488,-18 231.6255,-18"/>
<polygon fill="#000000" stroke="#000000" points="231.8077,-21.5001 241.8077,-18 231.8076,-14.5001 231.8077,-21.5001"/>
</g>
<!-- 201703 -->
<g id="node7" class="node">
<title>201703</title>
<ellipse fill="none" stroke="#000000" cx="380" cy="-18" rx="40.0147" ry="18"/>
<text text-anchor="middle" x="380" y="-13.8" font-family="Times,serif" font-size="14.00" fill="#000000">201703</text>
</g>
<!-- 201702&#45;&gt;201703 -->
<g id="edge5" class="edge">
<title>201702&#45;&gt;201703</title>
<path fill="none" stroke="#000000" d="M322.1953,-18C324.6721,-18 327.1488,-18 329.6255,-18"/>
<polygon fill="#000000" stroke="#000000" points="329.8077,-21.5001 339.8077,-18 329.8076,-14.5001 329.8077,-21.5001"/>
</g>
<!-- 201801 -->
<g id="node8" class="node">
<title>201801</title>
<ellipse fill="none" stroke="#000000" cx="143" cy="-162" rx="40.0147" ry="18"/>
<text text-anchor="middle" x="143" y="-157.8" font-family="Times,serif" font-size="14.00" fill="#000000">201801</text>
</g>
<!-- 201802 -->
<g id="node9" class="node">
<title>201802</title>
<ellipse fill="none" stroke="#000000" cx="241" cy="-162" rx="40.0147" ry="18"/>
<text text-anchor="middle" x="241" y="-157.8" font-family="Times,serif" font-size="14.00" fill="#000000">201802</text>
</g>
<!-- 201801&#45;&gt;201802 -->
<g id="edge6" class="edge">
<title>201801&#45;&gt;201802</title>
<path fill="none" stroke="#000000" d="M183.1953,-162C185.6721,-162 188.1488,-162 190.6255,-162"/>
<polygon fill="#000000" stroke="#000000" points="190.8077,-165.5001 200.8077,-162 190.8076,-158.5001 190.8077,-165.5001"/>
</g>
<!-- 201803 -->
<g id="node10" class="node">
<title>201803</title>
<ellipse fill="none" stroke="#000000" cx="339" cy="-162" rx="40.0147" ry="18"/>
<text text-anchor="middle" x="339" y="-157.8" font-family="Times,serif" font-size="14.00" fill="#000000">201803</text>
</g>
<!-- 201802&#45;&gt;201803 -->
<g id="edge7" class="edge">
<title>201802&#45;&gt;201803</title>
<path fill="none" stroke="#000000" d="M281.1953,-162C283.6721,-162 286.1488,-162 288.6255,-162"/>
<polygon fill="#000000" stroke="#000000" points="288.8077,-165.5001 298.8077,-162 288.8076,-158.5001 288.8077,-165.5001"/>
</g>
<!-- 201901 -->
<g id="node11" class="node">
<title>201901</title>
<ellipse fill="none" stroke="#000000" cx="175" cy="-90" rx="40.0147" ry="18"/>
<text text-anchor="middle" x="175" y="-85.8" font-family="Times,serif" font-size="14.00" fill="#000000">201901</text>
</g>
<!-- 201902 -->
<g id="node12" class="node">
<title>201902</title>
<ellipse fill="none" stroke="#000000" cx="273" cy="-90" rx="40.0147" ry="18"/>
<text text-anchor="middle" x="273" y="-85.8" font-family="Times,serif" font-size="14.00" fill="#000000">201902</text>
</g>
<!-- 201901&#45;&gt;201902 -->
<g id="edge8" class="edge">
<title>201901&#45;&gt;201902</title>
<path fill="none" stroke="#000000" d="M215.1953,-90C217.6721,-90 220.1488,-90 222.6255,-90"/>
<polygon fill="#000000" stroke="#000000" points="222.8077,-93.5001 232.8077,-90 222.8076,-86.5001 222.8077,-93.5001"/>
</g>
<!-- 201903 -->
<g id="node13" class="node">
<title>201903</title>
<ellipse fill="none" stroke="#000000" cx="371" cy="-90" rx="40.0147" ry="18"/>
<text text-anchor="middle" x="371" y="-85.8" font-family="Times,serif" font-size="14.00" fill="#000000">201903</text>
</g>
<!-- 201902&#45;&gt;201903 -->
<g id="edge9" class="edge">
<title>201902&#45;&gt;201903</title>
<path fill="none" stroke="#000000" d="M313.1953,-90C315.6721,-90 318.1488,-90 320.6255,-90"/>
<polygon fill="#000000" stroke="#000000" points="320.8077,-93.5001 330.8077,-90 320.8076,-86.5001 320.8077,-93.5001"/>
</g>
<!-- 202001 -->
<g id="node14" class="node">
<title>202001</title>
<ellipse fill="none" stroke="#000000" cx="478" cy="-18" rx="40.0147" ry="18"/>
<text text-anchor="middle" x="478" y="-13.8" font-family="Times,serif" font-size="14.00" fill="#000000">202001</text>
</g>
<!-- 202002 -->
<g id="node15" class="node">
<title>202002</title>
<ellipse fill="none" stroke="#000000" cx="576" cy="-18" rx="40.0147" ry="18"/>
<text text-anchor="middle" x="576" y="-13.8" font-family="Times,serif" font-size="14.00" fill="#000000">202002</text>
</g>
<!-- 202001&#45;&gt;202002 -->
<g id="edge10" class="edge">
<title>202001&#45;&gt;202002</title>
<path fill="none" stroke="#000000" d="M518.1953,-18C520.6721,-18 523.1488,-18 525.6255,-18"/>
<polygon fill="#000000" stroke="#000000" points="525.8077,-21.5001 535.8077,-18 525.8076,-14.5001 525.8077,-21.5001"/>
</g>
</g>
</svg>
