<?xml version="1.0" encoding="UTF-8" standalone="no"?>
<!DOCTYPE svg PUBLIC "-//W3C//DTD SVG 1.1//EN"
 "http://www.w3.org/Graphics/SVG/1.1/DTD/svg11.dtd">
<!-- Generated by graphviz version 2.40.1 (20161225.0304)
 -->
<!-- Title: structs Pages: 1 -->
<svg width="262pt" height="156pt"
 viewBox="0.00 0.00 261.65 156.40" xmlns="http://www.w3.org/2000/svg" xmlns:xlink="http://www.w3.org/1999/xlink">
<g id="graph0" class="graph" transform="scale(1 1) rotate(0) translate(4 152.4)">
<title>structs</title>
<polygon fill="#ffffff" stroke="transparent" points="-4,4 -4,-152.4 257.6494,-152.4 257.6494,4 -4,4"/>
<!-- struct1 -->
<g id="node1" class="node">
<title>struct1</title>
<polygon fill="none" stroke="#000000" points="6.8636,-111.9 6.8636,-147.9 142.3482,-147.9 142.3482,-111.9 6.8636,-111.9"/>
<text text-anchor="middle" x="24.1918" y="-125.7" font-family="Times,serif" font-size="14.00" fill="#000000">left</text>
<polyline fill="none" stroke="#000000" points="41.52,-111.9 41.52,-147.9 "/>
<text text-anchor="middle" x="70.7132" y="-125.7" font-family="Times,serif" font-size="14.00" fill="#000000">mid dle</text>
<polyline fill="none" stroke="#000000" points="99.9064,-111.9 99.9064,-147.9 "/>
<text text-anchor="middle" x="121.1273" y="-125.7" font-family="Times,serif" font-size="14.00" fill="#000000">right</text>
</g>
<!-- struct2 -->
<g id="node2" class="node">
<title>struct2</title>
<polygon fill="none" stroke="#000000" points="0,-19.7 0,-55.7 73.2118,-55.7 73.2118,-19.7 0,-19.7"/>
<text text-anchor="middle" x="18.1073" y="-33.5" font-family="Times,serif" font-size="14.00" fill="#000000">one</text>
<polyline fill="none" stroke="#000000" points="36.2146,-19.7 36.2146,-55.7 "/>
<text text-anchor="middle" x="54.7132" y="-33.5" font-family="Times,serif" font-size="14.00" fill="#000000">two</text>
</g>
<!-- struct1&#45;&gt;struct2 -->
<g id="edge1" class="edge">
<title>struct1:f1&#45;&gt;struct2:f0</title>
<path fill="none" stroke="#000000" d="M70.6059,-111.9C70.6059,-81.7253 29.7199,-87.6316 20.4566,-65.6315"/>
<polygon fill="#000000" stroke="#000000" points="23.8787,-64.8896 18.6059,-55.7 16.9971,-66.172 23.8787,-64.8896"/>
</g>
<!-- struct3 -->
<g id="node3" class="node">
<title>struct3</title>
<polygon fill="none" stroke="#000000" points="91.5624,-.5 91.5624,-74.9 253.6494,-74.9 253.6494,-.5 91.5624,-.5"/>
<text text-anchor="middle" x="115.8913" y="-41.9" font-family="Times,serif" font-size="14.00" fill="#000000">hello</text>
<text text-anchor="middle" x="115.8913" y="-25.1" font-family="Times,serif" font-size="14.00" fill="#000000">world</text>
<polyline fill="none" stroke="#000000" points="140.2202,-.5 140.2202,-74.9 "/>
<text text-anchor="middle" x="173.9348" y="-58.3" font-family="Times,serif" font-size="14.00" fill="#000000">b</text>
<polyline fill="none" stroke="#000000" points="140.2202,-50.1 207.6494,-50.1 "/>
<text text-anchor="middle" x="151.3275" y="-33.5" font-family="Times,serif" font-size="14.00" fill="#000000">c</text>
<polyline fill="none" stroke="#000000" points="162.4348,-25.3 162.4348,-50.1 "/>
<text text-anchor="middle" x="173.9348" y="-33.5" font-family="Times,serif" font-size="14.00" fill="#000000">d</text>
<polyline fill="none" stroke="#000000" points="185.4348,-25.3 185.4348,-50.1 "/>
<text text-anchor="middle" x="196.5421" y="-33.5" font-family="Times,serif" font-size="14.00" fill="#000000">e</text>
<polyline fill="none" stroke="#000000" points="140.2202,-25.3 207.6494,-25.3 "/>
<text text-anchor="middle" x="173.9348" y="-8.7" font-family="Times,serif" font-size="14.00" fill="#000000">f</text>
<polyline fill="none" stroke="#000000" points="207.6494,-.5 207.6494,-74.9 "/>
<text text-anchor="middle" x="219.1494" y="-33.5" font-family="Times,serif" font-size="14.00" fill="#000000">g</text>
<polyline fill="none" stroke="#000000" points="230.6494,-.5 230.6494,-74.9 "/>
<text text-anchor="middle" x="242.1494" y="-33.5" font-family="Times,serif" font-size="14.00" fill="#000000">h</text>
</g>
<!-- struct1&#45;&gt;struct3 -->
<g id="edge2" class="edge">
<title>struct1:f2&#45;&gt;struct3:here</title>
<path fill="none" stroke="#000000" d="M121.6059,-111.9C121.6059,-99.8011 140.3815,-75.4511 155.3686,-57.9416"/>
<polygon fill="#000000" stroke="#000000" points="158.3807,-59.8134 162.3227,-49.9792 153.1084,-55.2088 158.3807,-59.8134"/>
</g>
</g>
</svg>
