<?xml version="1.0" encoding="UTF-8" standalone="no"?>
<!DOCTYPE svg PUBLIC "-//W3C//DTD SVG 1.1//EN"
 "http://www.w3.org/Graphics/SVG/1.1/DTD/svg11.dtd">
<!-- Generated by graphviz version 2.40.1 (20161225.0304)
 -->
<!-- Title: graphname Pages: 1 -->
<svg width="166pt" height="217pt"
 viewBox="0.00 0.00 166.00 216.80" xmlns="http://www.w3.org/2000/svg" xmlns:xlink="http://www.w3.org/1999/xlink">
<g id="graph0" class="graph" transform="scale(1 1) rotate(0) translate(4 212.8)">
<title>graphname</title>
<polygon fill="#ffffff" stroke="transparent" points="-4,4 -4,-212.8 162,-212.8 162,4 -4,4"/>
<g id="clust2" class="cluster">
<title>cluster_bc</title>
<polygon fill="#ff0000" stroke="#000000" points="8,-92.8 8,-144.8 150,-144.8 150,-92.8 8,-92.8"/>
</g>
<g id="clust3" class="cluster">
<title>cluster_de</title>
<polygon fill="none" stroke="#000000" points="8,-8 8,-84.8 150,-84.8 150,-8 8,-8"/>
<text text-anchor="middle" x="79" y="-68.2" font-family="Times,serif" font-size="14.00" fill="#000000">Block</text>
</g>
<!-- a -->
<g id="node1" class="node">
<title>a</title>
<ellipse fill="none" stroke="#000000" cx="79" cy="-190.8" rx="27" ry="18"/>
<text text-anchor="middle" x="79" y="-186.6" font-family="Times,serif" font-size="14.00" fill="#000000">a</text>
</g>
<!-- b -->
<g id="node2" class="node">
<title>b</title>
<ellipse fill="none" stroke="#000000" cx="115" cy="-118.8" rx="27" ry="18"/>
<text text-anchor="middle" x="115" y="-114.6" font-family="Times,serif" font-size="14.00" fill="#000000">b</text>
</g>
<!-- a&#45;&gt;b -->
<g id="edge1" class="edge">
<title>a&#45;&gt;b</title>
<path fill="none" stroke="#000000" d="M87.7146,-173.3708C91.9597,-164.8807 97.1536,-154.4929 101.8663,-145.0674"/>
<polygon fill="#000000" stroke="#000000" points="105.024,-146.5782 106.3657,-136.0687 98.763,-143.4477 105.024,-146.5782"/>
</g>
<!-- c -->
<g id="node3" class="node">
<title>c</title>
<ellipse fill="none" stroke="#000000" cx="43" cy="-118.8" rx="27" ry="18"/>
<text text-anchor="middle" x="43" y="-114.6" font-family="Times,serif" font-size="14.00" fill="#000000">c</text>
</g>
<!-- a&#45;&gt;c -->
<g id="edge2" class="edge">
<title>a&#45;&gt;c</title>
<path fill="none" stroke="#000000" d="M70.2854,-173.3708C66.0403,-164.8807 60.8464,-154.4929 56.1337,-145.0674"/>
<polygon fill="#000000" stroke="#000000" points="59.237,-143.4477 51.6343,-136.0687 52.976,-146.5782 59.237,-143.4477"/>
</g>
<!-- d -->
<g id="node5" class="node">
<title>d</title>
<ellipse fill="none" stroke="#000000" cx="115" cy="-34" rx="27" ry="18"/>
<text text-anchor="middle" x="115" y="-29.8" font-family="Times,serif" font-size="14.00" fill="#000000">d</text>
</g>
<!-- b&#45;&gt;d -->
<g id="edge4" class="edge">
<title>b&#45;&gt;d</title>
<path fill="none" stroke="#000000" d="M115,-100.3997C115,-89.2112 115,-74.6983 115,-62.0954"/>
<polygon fill="#000000" stroke="#000000" points="118.5001,-62.0731 115,-52.0731 111.5001,-62.0731 118.5001,-62.0731"/>
</g>
<!-- e -->
<g id="node4" class="node">
<title>e</title>
<ellipse fill="none" stroke="#000000" cx="43" cy="-34" rx="27" ry="18"/>
<text text-anchor="middle" x="43" y="-29.8" font-family="Times,serif" font-size="14.00" fill="#000000">e</text>
</g>
<!-- c&#45;&gt;e -->
<g id="edge3" class="edge">
<title>c&#45;&gt;e</title>
<path fill="none" stroke="#000000" d="M43,-100.3997C43,-89.2112 43,-74.6983 43,-62.0954"/>
<polygon fill="#000000" stroke="#000000" points="46.5001,-62.0731 43,-52.0731 39.5001,-62.0731 46.5001,-62.0731"/>
</g>
</g>
</svg>
