<?xml version="1.0" encoding="UTF-8" standalone="no"?>
<!DOCTYPE svg PUBLIC "-//W3C//DTD SVG 1.1//EN"
 "http://www.w3.org/Graphics/SVG/1.1/DTD/svg11.dtd">
<!-- Generated by graphviz version 2.40.1 (20161225.0304)
 -->
<!-- Title: html Pages: 1 -->
<svg width="133pt" height="86pt"
 viewBox="0.00 0.00 133.00 86.00" xmlns="http://www.w3.org/2000/svg" xmlns:xlink="http://www.w3.org/1999/xlink">
<g id="graph0" class="graph" transform="scale(1 1) rotate(0) translate(4 82)">
<title>html</title>
<polygon fill="#ffffff" stroke="transparent" points="-4,4 -4,-82 129,-82 129,4 -4,4"/>
<!-- abc -->
<g id="node1" class="node">
<title>abc</title>
<polygon fill="none" stroke="#000000" points=".5,0 .5,-78 42.5,-78 42.5,0 .5,0"/>
<text text-anchor="start" x="7.5021" y="-43.2" font-family="Times,serif" font-size="14.00" fill="#ff0000">hello</text>
<text text-anchor="start" x="5.1711" y="-26.4" font-family="Times,serif" font-size="14.00" fill="#000000">world</text>
<polygon fill="none" stroke="#000000" points="42.5,-52 42.5,-78 91.5,-78 91.5,-52 42.5,-52"/>
<text text-anchor="start" x="63.5" y="-60.4" font-family="Times,serif" font-size="14.00" fill="#000000">b</text>
<polygon fill="#d3d3d3" stroke="transparent" points="91.5,0 91.5,-78 108.5,-78 108.5,0 91.5,0"/>
<polygon fill="none" stroke="#000000" points="91.5,0 91.5,-78 108.5,-78 108.5,0 91.5,0"/>
<text text-anchor="start" x="96.5" y="-34.8" font-family="Times,serif" font-size="14.00" fill="#000000">g</text>
<polygon fill="none" stroke="#000000" points="108.5,0 108.5,-78 125.5,-78 125.5,0 108.5,0"/>
<text text-anchor="start" x="113.5" y="-34.8" font-family="Times,serif" font-size="14.00" fill="#000000">h</text>
<polygon fill="none" stroke="#000000" points="42.5,-26 42.5,-52 58.5,-52 58.5,-26 42.5,-26"/>
<text text-anchor="start" x="47.3927" y="-34.4" font-family="Times,serif" font-size="14.00" fill="#000000">c</text>
<polygon fill="none" stroke="#000000" points="58.5,-26 58.5,-52 75.5,-52 75.5,-26 58.5,-26"/>
<text text-anchor="start" x="63.5" y="-34.4" font-family="Times,serif" font-size="14.00" fill="#000000">d</text>
<polygon fill="none" stroke="#000000" points="75.5,-26 75.5,-52 91.5,-52 91.5,-26 75.5,-26"/>
<text text-anchor="start" x="80.3927" y="-34.4" font-family="Times,serif" font-size="14.00" fill="#000000">e</text>
<polygon fill="none" stroke="#000000" points="42.5,0 42.5,-26 91.5,-26 91.5,0 42.5,0"/>
<text text-anchor="start" x="64.6697" y="-8.4" font-family="Times,serif" font-size="14.00" fill="#000000">f</text>
</g>
</g>
</svg>
