<?xml version="1.0" encoding="UTF-8" standalone="no"?>
<!DOCTYPE svg PUBLIC "-//W3C//DTD SVG 1.1//EN"
 "http://www.w3.org/Graphics/SVG/1.1/DTD/svg11.dtd">
<!-- Generated by graphviz version 2.40.1 (20161225.0304)
 -->
<!-- Title: example Pages: 1 -->
<svg width="855pt" height="1034pt"
 viewBox="0.00 0.00 854.57 1034.00" xmlns="http://www.w3.org/2000/svg" xmlns:xlink="http://www.w3.org/1999/xlink">
<g id="graph0" class="graph" transform="scale(1 1) rotate(0) translate(4 1030)">
<title>example</title>
<polygon fill="#ffffff" stroke="transparent" points="-4,4 -4,-1030 850.566,-1030 850.566,4 -4,4"/>
<!-- lpromoter -->
<g id="node1" class="node">
<title>lpromoter</title>
<polygon fill="none" stroke="#000000" points="596.4782,-30 543.0624,-30 543.0624,-36 525.0624,-18 543.0624,0 543.0624,-6 578.4782,-6 578.4782,0 596.4782,0 596.4782,-30"/>
<text text-anchor="middle" x="560.7703" y="-13.8" font-family="Times,serif" font-size="14.00" fill="#000000">lpromoter</text>
</g>
<!-- larrow -->
<g id="node2" class="node">
<title>larrow</title>
<polygon fill="none" stroke="#000000" points="358.3588,-30 322.3588,-30 322.3588,-36 304.3588,-18 322.3588,0 322.3588,-6 358.3588,-6 358.3588,-30"/>
<text text-anchor="middle" x="331.3588" y="-13.8" font-family="Times,serif" font-size="14.00" fill="#000000">larrow</text>
</g>
<!-- larrow&#45;&#45;lpromoter -->
<g id="edge2" class="edge">
<title>larrow&#45;&#45;lpromoter</title>
<path fill="none" stroke="#000000" d="M358.5762,-18C399.9986,-18 478.8969,-18 524.9346,-18"/>
</g>
<!-- rarrow -->
<g id="node3" class="node">
<title>rarrow</title>
<polygon fill="none" stroke="#000000" points="103.8061,-30 67.8061,-30 67.8061,-6 103.8061,-6 103.8061,0 121.8061,-18 103.8061,-36 103.8061,-30"/>
<text text-anchor="middle" x="94.8061" y="-13.8" font-family="Times,serif" font-size="14.00" fill="#000000">rarrow</text>
</g>
<!-- rarrow&#45;&#45;larrow -->
<g id="edge1" class="edge">
<title>rarrow&#45;&#45;larrow</title>
<path fill="none" stroke="#000000" d="M121.9417,-18C167.4505,-18 258.6361,-18 304.1763,-18"/>
</g>
<!-- rpromoter -->
<g id="node4" class="node">
<title>rpromoter</title>
<polygon fill="none" stroke="#000000" points="783.4782,-84 729.523,-84 729.523,-54 747.523,-54 747.523,-60 783.4782,-60 783.4782,-54 801.4782,-72 783.4782,-90 783.4782,-84"/>
<text text-anchor="middle" x="765.5006" y="-67.8" font-family="Times,serif" font-size="14.00" fill="#000000">rpromoter</text>
</g>
<!-- proteinstab -->
<g id="node5" class="node">
<title>proteinstab</title>
<polygon fill="none" stroke="#000000" points="562.2703,-78 563.7703,-79.5 563.7703,-82.5 562.2703,-84 559.2703,-84 557.7703,-82.5 557.7703,-79.5 559.2703,-78 562.2703,-78"/>
<polyline fill="none" stroke="#000000" points="560.7703,-78 560.7703,-72 "/>
<polyline fill="none" stroke="#000000" points="521.5638,-72 599.9768,-72 "/>
<text text-anchor="middle" x="560.7703" y="-67.8" font-family="Times,serif" font-size="14.00" fill="#000000">proteinstab</text>
</g>
<!-- proteinstab&#45;&#45;rpromoter -->
<g id="edge5" class="edge">
<title>proteinstab&#45;&#45;rpromoter</title>
<path fill="none" stroke="#000000" d="M600.2444,-72C637.5432,-72 693.0301,-72 729.2379,-72"/>
</g>
<!-- proteasesite -->
<g id="node6" class="node">
<title>proteasesite</title>
<polygon fill="none" stroke="#000000" points="334.3588,-78 334.3588,-79.5 332.8588,-81 334.3588,-82.5 334.3588,-84 332.8588,-84 331.3588,-82.5 329.8588,-84 328.3588,-84 328.3588,-82.5 329.8588,-81 328.3588,-79.5 328.3588,-78 329.8588,-78 331.3588,-79.5 332.8588,-78 334.3588,-78"/>
<polyline fill="none" stroke="#000000" points="331.3588,-79.5 331.3588,-72 "/>
<polyline fill="none" stroke="#000000" points="290.2787,-72 372.4388,-72 "/>
<text text-anchor="middle" x="331.3588" y="-67.8" font-family="Times,serif" font-size="14.00" fill="#000000">proteasesite</text>
</g>
<!-- proteasesite&#45;&#45;proteinstab -->
<g id="edge4" class="edge">
<title>proteasesite&#45;&#45;proteinstab</title>
<path fill="none" stroke="#000000" d="M372.6379,-72C414.8216,-72 479.8617,-72 521.356,-72"/>
</g>
<!-- rnastab -->
<g id="node7" class="node">
<title>rnastab</title>
<polygon fill="none" stroke="#000000" points="96.3061,-78 97.8061,-79.5 97.8061,-82.5 96.3061,-84 93.3061,-84 91.8061,-82.5 91.8061,-79.5 93.3061,-78 96.3061,-78"/>
<polyline fill="none" stroke="#000000" points="94.8061,-72 94.8061,-73.5 "/>
<polyline fill="none" stroke="#000000" points="94.8061,-75 94.8061,-76.5 "/>
<polyline fill="none" stroke="#000000" points="66.3795,-72 123.2327,-72 "/>
<text text-anchor="middle" x="94.8061" y="-67.8" font-family="Times,serif" font-size="14.00" fill="#000000">rnastab</text>
</g>
<!-- rnastab&#45;&#45;proteasesite -->
<g id="edge3" class="edge">
<title>rnastab&#45;&#45;proteasesite</title>
<path fill="none" stroke="#000000" d="M123.3399,-72C164.8741,-72 242.2261,-72 290.0044,-72"/>
</g>
<!-- ribosite -->
<g id="node8" class="node">
<title>ribosite</title>
<polygon fill="none" stroke="#000000" points="768.5006,-132 768.5006,-133.5 767.0006,-135 768.5006,-136.5 768.5006,-138 767.0006,-138 765.5006,-136.5 764.0006,-138 762.5006,-138 762.5006,-136.5 764.0006,-135 762.5006,-133.5 762.5006,-132 764.0006,-132 765.5006,-133.5 767.0006,-132 768.5006,-132"/>
<polyline fill="none" stroke="#000000" points="765.5006,-126 765.5006,-127.5 "/>
<polyline fill="none" stroke="#000000" points="765.5006,-129 765.5006,-130.5 "/>
<polyline fill="none" stroke="#000000" points="736.509,-126 794.4922,-126 "/>
<text text-anchor="middle" x="765.5006" y="-121.8" font-family="Times,serif" font-size="14.00" fill="#000000">ribosite</text>
</g>
<!-- insulator -->
<g id="node9" class="node">
<title>insulator</title>
<polygon fill="none" stroke="#000000" points="566.7703,-132 566.7703,-120 554.7703,-120 554.7703,-132 566.7703,-132"/>
<polyline fill="none" stroke="#000000" points="569.7703,-135 569.7703,-117 551.7703,-117 551.7703,-135 569.7703,-135 "/>
<polyline fill="none" stroke="#000000" points="569.7703,-126 593.2619,-126 "/>
<polyline fill="none" stroke="#000000" points="528.2787,-126 551.7703,-126 "/>
<text text-anchor="middle" x="560.7703" y="-121.8" font-family="Times,serif" font-size="14.00" fill="#000000">insulator</text>
</g>
<!-- insulator&#45;&#45;ribosite -->
<g id="edge8" class="edge">
<title>insulator&#45;&#45;ribosite</title>
<path fill="none" stroke="#000000" d="M593.6638,-126C633.112,-126 698.6224,-126 736.336,-126"/>
</g>
<!-- signature -->
<g id="node10" class="node">
<title>signature</title>
<polygon fill="none" stroke="#000000" points="365.1751,-138 297.5424,-138 297.5424,-114 365.1751,-114 365.1751,-138"/>
<polyline fill="none" stroke="#000000" points="300.5424,-127.5 303.5424,-124.5 "/>
<polyline fill="none" stroke="#000000" points="300.5424,-124.5 303.5424,-127.5 "/>
<polyline fill="none" stroke="#000000" points="300.5424,-117 362.1751,-117 "/>
<text text-anchor="middle" x="331.3588" y="-121.8" font-family="Times,serif" font-size="14.00" fill="#000000">signature</text>
</g>
<!-- signature&#45;&#45;insulator -->
<g id="edge7" class="edge">
<title>signature&#45;&#45;insulator</title>
<path fill="none" stroke="#000000" d="M365.2092,-126C409.0818,-126 485.0628,-126 528.2664,-126"/>
</g>
<!-- assembly -->
<g id="node11" class="node">
<title>assembly</title>
<polygon fill="none" stroke="#000000" points="82.8061,-127.5 106.8061,-127.5 106.8061,-133.5 82.8061,-133.5 82.8061,-127.5"/>
<polygon fill="none" stroke="#000000" points="82.8061,-118.5 106.8061,-118.5 106.8061,-124.5 82.8061,-124.5 82.8061,-118.5"/>
<polyline fill="none" stroke="#000000" points="106.8061,-126 128.9058,-126 "/>
<polyline fill="none" stroke="#000000" points="60.7064,-126 82.8061,-126 "/>
<text text-anchor="middle" x="94.8061" y="-121.8" font-family="Times,serif" font-size="14.00" fill="#000000">assembly</text>
</g>
<!-- assembly&#45;&#45;signature -->
<g id="edge6" class="edge">
<title>assembly&#45;&#45;signature</title>
<path fill="none" stroke="#000000" d="M128.9503,-126C173.9875,-126 252.7682,-126 297.6079,-126"/>
</g>
<!-- noverhang -->
<g id="node12" class="node">
<title>noverhang</title>
<polygon fill="none" stroke="#000000" points="752.0006,-181.5 764.0006,-181.5 764.0006,-187.5 752.0006,-187.5 752.0006,-181.5"/>
<polygon fill="none" stroke="#000000" points="752.0006,-172.5 764.0006,-172.5 764.0006,-178.5 752.0006,-178.5 752.0006,-172.5"/>
<polygon fill="none" stroke="#000000" points="767.0006,-172.5 779.0006,-172.5 779.0006,-178.5 767.0006,-178.5 767.0006,-172.5"/>
<polygon fill="none" stroke="#000000" points="767.0006,-181.5 779.0006,-181.5 779.0006,-187.5 767.0006,-187.5 767.0006,-181.5"/>
<polyline fill="none" stroke="#000000" points="779.0006,-180 803.0905,-180 "/>
<polyline fill="none" stroke="#000000" points="752.0006,-180 727.9108,-180 "/>
<text text-anchor="middle" x="765.5006" y="-175.8" font-family="Times,serif" font-size="14.00" fill="#000000">noverhang</text>
</g>
<!-- threepoverhang -->
<g id="node13" class="node">
<title>threepoverhang</title>
<polygon fill="none" stroke="#000000" points="612.3405,-181.5 612.3405,-187.5 588.3405,-187.5 588.3405,-181.5 612.3405,-181.5"/>
<polygon fill="none" stroke="#000000" points="600.3405,-172.5 600.3405,-178.5 588.3405,-178.5 588.3405,-172.5 600.3405,-172.5"/>
<polyline fill="none" stroke="#000000" points="509.2001,-180 588.3405,-180 "/>
<text text-anchor="middle" x="560.7703" y="-175.8" font-family="Times,serif" font-size="14.00" fill="#000000">threepoverhang</text>
</g>
<!-- threepoverhang&#45;&#45;noverhang -->
<g id="edge11" class="edge">
<title>threepoverhang&#45;&#45;noverhang</title>
<path fill="none" stroke="#000000" d="M612.4324,-180C648.3247,-180 695.3432,-180 727.7486,-180"/>
</g>
<!-- fivepoverhang -->
<g id="node14" class="node">
<title>fivepoverhang</title>
<polygon fill="none" stroke="#000000" points="283.0031,-181.5 307.0031,-181.5 307.0031,-187.5 283.0031,-187.5 283.0031,-181.5"/>
<polygon fill="none" stroke="#000000" points="295.0031,-172.5 307.0031,-172.5 307.0031,-178.5 295.0031,-178.5 295.0031,-172.5"/>
<polyline fill="none" stroke="#000000" points="307.0031,-180 379.7145,-180 "/>
<text text-anchor="middle" x="331.3588" y="-175.8" font-family="Times,serif" font-size="14.00" fill="#000000">fivepoverhang</text>
</g>
<!-- fivepoverhang&#45;&#45;threepoverhang -->
<g id="edge10" class="edge">
<title>fivepoverhang&#45;&#45;threepoverhang</title>
<path fill="none" stroke="#000000" d="M379.7307,-180C417.5908,-180 470.1403,-180 508.8745,-180"/>
</g>
<!-- restrictionsite -->
<g id="node15" class="node">
<title>restrictionsite</title>
<polygon fill="none" stroke="#000000" points="112.3556,-183 83.2566,-183 83.2566,-189 77.2566,-189 77.2566,-177 106.3556,-177 106.3556,-171 112.3556,-171 112.3556,-183"/>
<polyline fill="none" stroke="#000000" points="48.6081,-180 77.2566,-180 "/>
<polyline fill="none" stroke="#000000" points="112.3556,-180 141.0041,-180 "/>
<text text-anchor="middle" x="94.8061" y="-175.8" font-family="Times,serif" font-size="14.00" fill="#000000">restrictionsite</text>
</g>
<!-- restrictionsite&#45;&#45;fivepoverhang -->
<g id="edge9" class="edge">
<title>restrictionsite&#45;&#45;fivepoverhang</title>
<path fill="none" stroke="#000000" d="M140.9774,-180C181.8518,-180 241.3047,-180 282.8644,-180"/>
</g>
<!-- primersite -->
<g id="node16" class="node">
<title>primersite</title>
<polygon fill="none" stroke="#000000" points="777.5006,-237 765.5006,-249 765.5006,-243 747.3717,-243 747.3717,-237 777.5006,-237"/>
<polyline fill="none" stroke="#000000" points="729.2428,-234 801.7584,-234 "/>
<text text-anchor="middle" x="765.5006" y="-229.8" font-family="Times,serif" font-size="14.00" fill="#000000">primersite</text>
</g>
<!-- utr -->
<g id="node17" class="node">
<title>utr</title>
<polygon fill="none" stroke="#000000" points="569.7703,-234 569.7703,-237 563.7703,-243 557.7703,-243 551.7703,-237 551.7703,-234 569.7703,-234"/>
<polyline fill="none" stroke="#000000" points="533.7703,-234 587.7703,-234 "/>
<text text-anchor="middle" x="560.7703" y="-229.8" font-family="Times,serif" font-size="14.00" fill="#000000">utr</text>
</g>
<!-- utr&#45;&#45;primersite -->
<g id="edge14" class="edge">
<title>utr&#45;&#45;primersite</title>
<path fill="none" stroke="#000000" d="M587.9569,-234C624.2864,-234 688.7714,-234 729.2177,-234"/>
</g>
<!-- terminator -->
<g id="node18" class="node">
<title>terminator</title>
<polygon fill="none" stroke="#000000" points="334.3588,-234 334.3588,-240 340.3588,-240 340.3588,-246 322.3588,-246 322.3588,-240 328.3588,-240 328.3588,-234 334.3588,-234"/>
<polyline fill="none" stroke="#000000" points="294.0453,-234 368.6722,-234 "/>
<text text-anchor="middle" x="331.3588" y="-229.8" font-family="Times,serif" font-size="14.00" fill="#000000">terminator</text>
</g>
<!-- terminator&#45;&#45;utr -->
<g id="edge13" class="edge">
<title>terminator&#45;&#45;utr</title>
<path fill="none" stroke="#000000" d="M368.7283,-234C414.9438,-234 492.5109,-234 533.4927,-234"/>
</g>
<!-- cds -->
<g id="node19" class="node">
<title>cds</title>
<polygon fill="none" stroke="#000000" points="109.8061,-246 67.8061,-246 67.8061,-222 109.8061,-222 121.8061,-234 109.8061,-246"/>
<text text-anchor="middle" x="94.8061" y="-229.8" font-family="Times,serif" font-size="14.00" fill="#000000">cds</text>
</g>
<!-- cds&#45;&#45;terminator -->
<g id="edge12" class="edge">
<title>cds&#45;&#45;terminator</title>
<path fill="none" stroke="#000000" d="M121.9417,-234C164.2953,-234 246.2113,-234 294.0761,-234"/>
</g>
<!-- promoter -->
<g id="node20" class="node">
<title>promoter</title>
<polygon fill="none" stroke="#000000" points="773.9551,-306 748.5917,-306 748.5917,-288 754.5917,-288 754.5917,-300 773.9551,-300 773.9551,-297 785.9551,-303 773.9551,-309 773.9551,-306"/>
<polyline fill="none" stroke="#000000" points="731.6829,-288 799.3184,-288 "/>
<text text-anchor="middle" x="765.5006" y="-283.8" font-family="Times,serif" font-size="14.00" fill="#000000">promoter</text>
</g>
<!-- component -->
<g id="node21" class="node">
<title>component</title>
<polygon fill="none" stroke="#000000" points="599.981,-306 521.5596,-306 521.5596,-302 517.5596,-302 517.5596,-298 521.5596,-298 521.5596,-278 517.5596,-278 517.5596,-274 521.5596,-274 521.5596,-270 599.981,-270 599.981,-306"/>
<polyline fill="none" stroke="#000000" points="521.5596,-302 525.5596,-302 525.5596,-298 521.5596,-298 "/>
<polyline fill="none" stroke="#000000" points="521.5596,-278 525.5596,-278 525.5596,-274 521.5596,-274 "/>
<text text-anchor="middle" x="560.7703" y="-283.8" font-family="Times,serif" font-size="14.00" fill="#000000">component</text>
</g>
<!-- component&#45;&#45;promoter -->
<g id="edge17" class="edge">
<title>component&#45;&#45;promoter</title>
<path fill="none" stroke="#000000" d="M600.2444,-288C638.3566,-288 695.4588,-288 731.5787,-288"/>
</g>
<!-- box3d -->
<g id="node22" class="node">
<title>box3d</title>
<polygon fill="none" stroke="#000000" points="358.3588,-306 308.3588,-306 304.3588,-302 304.3588,-270 354.3588,-270 358.3588,-274 358.3588,-306"/>
<polyline fill="none" stroke="#000000" points="354.3588,-302 304.3588,-302 "/>
<polyline fill="none" stroke="#000000" points="354.3588,-302 354.3588,-270 "/>
<polyline fill="none" stroke="#000000" points="354.3588,-302 358.3588,-306 "/>
<text text-anchor="middle" x="331.3588" y="-283.8" font-family="Times,serif" font-size="14.00" fill="#000000">box3d</text>
</g>
<!-- box3d&#45;&#45;component -->
<g id="edge16" class="edge">
<title>box3d&#45;&#45;component</title>
<path fill="none" stroke="#000000" d="M358.5762,-288C398.9304,-288 474.8525,-288 521.3086,-288"/>
</g>
<!-- folder -->
<g id="node23" class="node">
<title>folder</title>
<polygon fill="none" stroke="#000000" points="121.8061,-306 118.8061,-310 97.8061,-310 94.8061,-306 67.8061,-306 67.8061,-270 121.8061,-270 121.8061,-306"/>
<text text-anchor="middle" x="94.8061" y="-283.8" font-family="Times,serif" font-size="14.00" fill="#000000">folder</text>
</g>
<!-- folder&#45;&#45;box3d -->
<g id="edge15" class="edge">
<title>folder&#45;&#45;box3d</title>
<path fill="none" stroke="#000000" d="M121.9417,-288C167.4505,-288 258.6361,-288 304.1763,-288"/>
</g>
<!-- tab -->
<g id="node24" class="node">
<title>tab</title>
<polygon fill="none" stroke="#000000" points="792.5006,-360 750.5006,-360 750.5006,-364 738.5006,-364 738.5006,-324 792.5006,-324 792.5006,-360"/>
<polyline fill="none" stroke="#000000" points="738.5006,-360 750.5006,-360 "/>
<text text-anchor="middle" x="765.5006" y="-337.8" font-family="Times,serif" font-size="14.00" fill="#000000">tab</text>
</g>
<!-- note -->
<g id="node25" class="node">
<title>note</title>
<polygon fill="none" stroke="#000000" points="581.7703,-360 533.7703,-360 533.7703,-324 587.7703,-324 587.7703,-354 581.7703,-360"/>
<polyline fill="none" stroke="#000000" points="581.7703,-360 581.7703,-354 "/>
<polyline fill="none" stroke="#000000" points="587.7703,-354 581.7703,-354 "/>
<text text-anchor="middle" x="560.7703" y="-337.8" font-family="Times,serif" font-size="14.00" fill="#000000">note</text>
</g>
<!-- note&#45;&#45;tab -->
<g id="edge20" class="edge">
<title>note&#45;&#45;tab</title>
<path fill="none" stroke="#000000" d="M587.9569,-342C627.1144,-342 698.9816,-342 738.2016,-342"/>
</g>
<!-- cylinder -->
<g id="node26" class="node">
<title>cylinder</title>
<path fill="none" stroke="#000000" d="M362.2299,-356.7273C362.2299,-358.5331 348.393,-360 331.3588,-360 314.3246,-360 300.4876,-358.5331 300.4876,-356.7273 300.4876,-356.7273 300.4876,-327.2727 300.4876,-327.2727 300.4876,-325.4669 314.3246,-324 331.3588,-324 348.393,-324 362.2299,-325.4669 362.2299,-327.2727 362.2299,-327.2727 362.2299,-356.7273 362.2299,-356.7273"/>
<path fill="none" stroke="#000000" d="M362.2299,-356.7273C362.2299,-354.9214 348.393,-353.4545 331.3588,-353.4545 314.3246,-353.4545 300.4876,-354.9214 300.4876,-356.7273"/>
<text text-anchor="middle" x="331.3588" y="-337.8" font-family="Times,serif" font-size="14.00" fill="#000000">cylinder</text>
</g>
<!-- cylinder&#45;&#45;note -->
<g id="edge19" class="edge">
<title>cylinder&#45;&#45;note</title>
<path fill="none" stroke="#000000" d="M362.2982,-342C407.4283,-342 490.5966,-342 533.5334,-342"/>
</g>
<!-- underline -->
<g id="node27" class="node">
<title>underline</title>
<polygon fill="none" stroke="transparent" points="129.1772,-360 60.435,-360 60.435,-324 129.1772,-324 129.1772,-360"/>
<polyline fill="none" stroke="#000000" points="60.435,-324 129.1772,-324 "/>
<text text-anchor="middle" x="94.8061" y="-337.8" font-family="Times,serif" font-size="14.00" fill="#000000">underline</text>
</g>
<!-- underline&#45;&#45;cylinder -->
<g id="edge18" class="edge">
<title>underline&#45;&#45;cylinder</title>
<path fill="none" stroke="#000000" d="M129.2029,-342C175.2049,-342 256.0846,-342 300.315,-342"/>
</g>
<!-- none -->
<g id="node28" class="node">
<title>none</title>
<text text-anchor="middle" x="765.5006" y="-426.8" font-family="Times,serif" font-size="14.00" fill="#000000">none</text>
</g>
<!-- star -->
<g id="node29" class="node">
<title>star</title>
<polygon fill="none" stroke="#000000" points="616.2321,-443.4064 573.8631,-443.4064 560.7703,-483.5545 547.6776,-443.4064 505.3085,-443.4064 539.5858,-418.5936 526.493,-378.4455 560.7703,-403.2584 595.0476,-378.4455 581.9548,-418.5936 616.2321,-443.4064"/>
<text text-anchor="middle" x="560.7703" y="-426.8" font-family="Times,serif" font-size="14.00" fill="#000000">star</text>
</g>
<!-- star&#45;&#45;none -->
<g id="edge23" class="edge">
<title>star&#45;&#45;none</title>
<path fill="none" stroke="#000000" d="M599.2785,-431C639.8193,-431 702.6089,-431 738.2843,-431"/>
</g>
<!-- square -->
<g id="node30" class="node">
<title>square</title>
<polygon fill="none" stroke="#000000" points="357.3952,-457.0364 305.3223,-457.0364 305.3223,-404.9636 357.3952,-404.9636 357.3952,-457.0364"/>
<text text-anchor="middle" x="331.3588" y="-426.8" font-family="Times,serif" font-size="14.00" fill="#000000">square</text>
</g>
<!-- square&#45;&#45;star -->
<g id="edge22" class="edge">
<title>square&#45;&#45;star</title>
<path fill="none" stroke="#000000" d="M357.6752,-431C398.1617,-431 475.9249,-431 522.5979,-431"/>
</g>
<!-- rectangle -->
<g id="node31" class="node">
<title>rectangle</title>
<polygon fill="none" stroke="#000000" points="128.607,-449 61.0052,-449 61.0052,-413 128.607,-413 128.607,-449"/>
<text text-anchor="middle" x="94.8061" y="-426.8" font-family="Times,serif" font-size="14.00" fill="#000000">rectangle</text>
</g>
<!-- rectangle&#45;&#45;square -->
<g id="edge21" class="edge">
<title>rectangle&#45;&#45;square</title>
<path fill="none" stroke="#000000" d="M128.6983,-431C176.3498,-431 262.1306,-431 305.1948,-431"/>
</g>
<!-- rect -->
<g id="node32" class="node">
<title>rect</title>
<polygon fill="none" stroke="#000000" points="792.5006,-561 738.5006,-561 738.5006,-525 792.5006,-525 792.5006,-561"/>
<text text-anchor="middle" x="765.5006" y="-538.8" font-family="Times,serif" font-size="14.00" fill="#000000">rect</text>
</g>
<!-- Mcircle -->
<g id="node33" class="node">
<title>Mcircle</title>
<ellipse fill="none" stroke="#000000" cx="560.7703" cy="-543" rx="41.1258" ry="41.1258"/>
<polyline fill="none" stroke="#000000" points="587.9293,-573.7971 533.6113,-573.7971 "/>
<polyline fill="none" stroke="#000000" points="587.9293,-512.2029 533.6113,-512.2029 "/>
<text text-anchor="middle" x="560.7703" y="-538.8" font-family="Times,serif" font-size="14.00" fill="#000000">Mcircle</text>
</g>
<!-- Mcircle&#45;&#45;rect -->
<g id="edge26" class="edge">
<title>Mcircle&#45;&#45;rect</title>
<path fill="none" stroke="#000000" d="M602.2005,-543C642.8613,-543 703.6894,-543 738.4856,-543"/>
</g>
<!-- Msquare -->
<g id="node34" class="node">
<title>Msquare</title>
<polygon fill="none" stroke="#000000" points="363.8378,-575.479 298.8798,-575.479 298.8798,-510.521 363.8378,-510.521 363.8378,-575.479"/>
<polyline fill="none" stroke="#000000" points="310.8798,-575.479 298.8798,-563.479 "/>
<polyline fill="none" stroke="#000000" points="298.8798,-522.521 310.8798,-510.521 "/>
<polyline fill="none" stroke="#000000" points="351.8378,-510.521 363.8378,-522.521 "/>
<polyline fill="none" stroke="#000000" points="363.8378,-563.479 351.8378,-575.479 "/>
<text text-anchor="middle" x="331.3588" y="-538.8" font-family="Times,serif" font-size="14.00" fill="#000000">Msquare</text>
</g>
<!-- Msquare&#45;&#45;Mcircle -->
<g id="edge25" class="edge">
<title>Msquare&#45;&#45;Mcircle</title>
<path fill="none" stroke="#000000" d="M364.2279,-543C405.1133,-543 474.9426,-543 519.4207,-543"/>
</g>
<!-- Mdiamond -->
<g id="node35" class="node">
<title>Mdiamond</title>
<polygon fill="none" stroke="#000000" points="94.8061,-561 19.2201,-543 94.8061,-525 170.3921,-543 94.8061,-561"/>
<polyline fill="none" stroke="#000000" points="30.8936,-545.7799 30.8936,-540.2201 "/>
<polyline fill="none" stroke="#000000" points="83.1325,-527.7799 106.4797,-527.7799 "/>
<polyline fill="none" stroke="#000000" points="158.7186,-540.2201 158.7186,-545.7799 "/>
<polyline fill="none" stroke="#000000" points="106.4797,-558.2201 83.1325,-558.2201 "/>
<text text-anchor="middle" x="94.8061" y="-538.8" font-family="Times,serif" font-size="14.00" fill="#000000">Mdiamond</text>
</g>
<!-- Mdiamond&#45;&#45;Msquare -->
<g id="edge24" class="edge">
<title>Mdiamond&#45;&#45;Msquare</title>
<path fill="none" stroke="#000000" d="M170.6289,-543C213.8731,-543 265.8472,-543 298.7465,-543"/>
</g>
<!-- invhouse -->
<g id="node36" class="node">
<title>invhouse</title>
<polygon fill="none" stroke="#000000" points="708.5166,-614.4377 765.5006,-602 822.4846,-614.4377 822.4315,-634.5623 708.5698,-634.5623 708.5166,-614.4377"/>
<text text-anchor="middle" x="765.5006" y="-615.8" font-family="Times,serif" font-size="14.00" fill="#000000">invhouse</text>
</g>
<!-- invtrapezium -->
<g id="node37" class="node">
<title>invtrapezium</title>
<polygon fill="none" stroke="#000000" points="509.476,-602 612.0646,-602 648.6005,-638 472.9401,-638 509.476,-602"/>
<text text-anchor="middle" x="560.7703" y="-615.8" font-family="Times,serif" font-size="14.00" fill="#000000">invtrapezium</text>
</g>
<!-- invtrapezium&#45;&#45;invhouse -->
<g id="edge29" class="edge">
<title>invtrapezium&#45;&#45;invhouse</title>
<path fill="none" stroke="#000000" d="M630.3683,-620C655.871,-620 684.407,-620 708.6609,-620"/>
</g>
<!-- invtriangle -->
<g id="node38" class="node">
<title>invtriangle</title>
<polygon fill="none" stroke="#000000" points="331.3588,-595.3984 437.3525,-632.3008 225.365,-632.3008 331.3588,-595.3984"/>
<text text-anchor="middle" x="331.3588" y="-615.8" font-family="Times,serif" font-size="14.00" fill="#000000">invtriangle</text>
</g>
<!-- invtriangle&#45;&#45;invtrapezium -->
<g id="edge28" class="edge">
<title>invtriangle&#45;&#45;invtrapezium</title>
<path fill="none" stroke="#000000" d="M402.0617,-620C430.3672,-620 462.8863,-620 491.089,-620"/>
</g>
<!-- tripleoctagon -->
<g id="node39" class="node">
<title>tripleoctagon</title>
<polygon fill="none" stroke="#000000" points="161.9877,-612.5442 161.9877,-627.4558 122.6336,-638 66.9786,-638 27.6245,-627.4558 27.6245,-612.5442 66.9786,-602 122.6336,-602 161.9877,-612.5442"/>
<polygon fill="none" stroke="#000000" points="165.9928,-609.4758 165.9928,-630.5242 123.1615,-642 66.4507,-642 23.6194,-630.5242 23.6194,-609.4758 66.4507,-598 123.1615,-598 165.9928,-609.4758"/>
<polygon fill="none" stroke="#000000" points="169.9979,-606.4075 169.9979,-633.5925 123.6894,-646 65.9228,-646 19.6143,-633.5925 19.6143,-606.4075 65.9228,-594 123.6894,-594 169.9979,-606.4075"/>
<text text-anchor="middle" x="94.8061" y="-615.8" font-family="Times,serif" font-size="14.00" fill="#000000">tripleoctagon</text>
</g>
<!-- tripleoctagon&#45;&#45;invtriangle -->
<g id="edge27" class="edge">
<title>tripleoctagon&#45;&#45;invtriangle</title>
<path fill="none" stroke="#000000" d="M169.9779,-620C198.9289,-620 231.8716,-620 260.4115,-620"/>
</g>
<!-- doubleoctagon -->
<g id="node40" class="node">
<title>doubleoctagon</title>
<polygon fill="none" stroke="#000000" points="838.9724,-711.5442 838.9724,-726.4558 795.9336,-737 735.0676,-737 692.0288,-726.4558 692.0288,-711.5442 735.0676,-701 795.9336,-701 838.9724,-711.5442"/>
<polygon fill="none" stroke="#000000" points="842.9717,-708.4057 842.9717,-729.5943 796.4163,-741 734.5849,-741 688.0296,-729.5943 688.0296,-708.4057 734.5849,-697 796.4163,-697 842.9717,-708.4057"/>
<text text-anchor="middle" x="765.5006" y="-714.8" font-family="Times,serif" font-size="14.00" fill="#000000">doubleoctagon</text>
</g>
<!-- doublecircle -->
<g id="node41" class="node">
<title>doublecircle</title>
<ellipse fill="none" stroke="#000000" cx="560.7703" cy="-719" rx="58.5421" ry="58.5421"/>
<ellipse fill="none" stroke="#000000" cx="560.7703" cy="-719" rx="62.527" ry="62.527"/>
<text text-anchor="middle" x="560.7703" y="-714.8" font-family="Times,serif" font-size="14.00" fill="#000000">doublecircle</text>
</g>
<!-- doublecircle&#45;&#45;doubleoctagon -->
<g id="edge32" class="edge">
<title>doublecircle&#45;&#45;doubleoctagon</title>
<path fill="none" stroke="#000000" d="M623.5875,-719C643.9222,-719 666.7173,-719 687.9886,-719"/>
</g>
<!-- octagon -->
<g id="node42" class="node">
<title>octagon</title>
<polygon fill="none" stroke="#000000" points="376.4301,-711.5442 376.4301,-726.4558 350.0279,-737 312.6896,-737 286.2875,-726.4558 286.2875,-711.5442 312.6896,-701 350.0279,-701 376.4301,-711.5442"/>
<text text-anchor="middle" x="331.3588" y="-714.8" font-family="Times,serif" font-size="14.00" fill="#000000">octagon</text>
</g>
<!-- octagon&#45;&#45;doublecircle -->
<g id="edge31" class="edge">
<title>octagon&#45;&#45;doublecircle</title>
<path fill="none" stroke="#000000" d="M376.4094,-719C410.9892,-719 459.1614,-719 497.5923,-719"/>
</g>
<!-- septagon -->
<g id="node43" class="node">
<title>septagon</title>
<polygon fill="none" stroke="#000000" points="145.005,-714.9946 135.0625,-730.2228 94.8061,-737 54.5497,-730.2228 44.6072,-714.9946 72.4655,-702.7826 117.1467,-702.7826 145.005,-714.9946"/>
<text text-anchor="middle" x="94.8061" y="-714.8" font-family="Times,serif" font-size="14.00" fill="#000000">septagon</text>
</g>
<!-- septagon&#45;&#45;octagon -->
<g id="edge30" class="edge">
<title>septagon&#45;&#45;octagon</title>
<path fill="none" stroke="#000000" d="M142.3915,-719C184.3505,-719 245.0575,-719 286.2554,-719"/>
</g>
<!-- hexagon -->
<g id="node44" class="node">
<title>hexagon</title>
<polygon fill="none" stroke="#000000" points="816.0422,-818 790.7714,-836 740.2298,-836 714.959,-818 740.2298,-800 790.7714,-800 816.0422,-818"/>
<text text-anchor="middle" x="765.5006" y="-813.8" font-family="Times,serif" font-size="14.00" fill="#000000">hexagon</text>
</g>
<!-- pentagon -->
<g id="node45" class="node">
<title>pentagon</title>
<polygon fill="none" stroke="#000000" points="618.0665,-823.5623 560.7703,-836 503.4741,-823.5623 525.3593,-803.4377 596.1813,-803.4377 618.0665,-823.5623"/>
<text text-anchor="middle" x="560.7703" y="-813.8" font-family="Times,serif" font-size="14.00" fill="#000000">pentagon</text>
</g>
<!-- pentagon&#45;&#45;hexagon -->
<g id="edge35" class="edge">
<title>pentagon&#45;&#45;hexagon</title>
<path fill="none" stroke="#000000" d="M612.1681,-818C643.5567,-818 683.529,-818 714.7909,-818"/>
</g>
<!-- house -->
<g id="node46" class="node">
<title>house</title>
<polygon fill="none" stroke="#000000" points="372.8341,-823.5623 331.3588,-836 289.8834,-823.5623 289.9222,-803.4377 372.7954,-803.4377 372.8341,-823.5623"/>
<text text-anchor="middle" x="331.3588" y="-813.8" font-family="Times,serif" font-size="14.00" fill="#000000">house</text>
</g>
<!-- house&#45;&#45;pentagon -->
<g id="edge34" class="edge">
<title>house&#45;&#45;pentagon</title>
<path fill="none" stroke="#000000" d="M372.9035,-818C411.2525,-818 468.3261,-818 509.4967,-818"/>
</g>
<!-- parallelogram -->
<g id="node47" class="node">
<title>parallelogram</title>
<polygon fill="none" stroke="#000000" points="189.4187,-836 38.9112,-836 .1935,-800 150.701,-800 189.4187,-836"/>
<text text-anchor="middle" x="94.8061" y="-813.8" font-family="Times,serif" font-size="14.00" fill="#000000">parallelogram</text>
</g>
<!-- parallelogram&#45;&#45;house -->
<g id="edge33" class="edge">
<title>parallelogram&#45;&#45;house</title>
<path fill="none" stroke="#000000" d="M170.3032,-818C209.7853,-818 256.6174,-818 289.5742,-818"/>
</g>
<!-- trapezium -->
<g id="node48" class="node">
<title>trapezium</title>
<polygon fill="none" stroke="#000000" points="806.6306,-890 724.3706,-890 695.0746,-854 835.9266,-854 806.6306,-890"/>
<text text-anchor="middle" x="765.5006" y="-867.8" font-family="Times,serif" font-size="14.00" fill="#000000">trapezium</text>
</g>
<!-- diamond -->
<g id="node49" class="node">
<title>diamond</title>
<polygon fill="none" stroke="#000000" points="560.7703,-890 497.4635,-872 560.7703,-854 624.0771,-872 560.7703,-890"/>
<text text-anchor="middle" x="560.7703" y="-867.8" font-family="Times,serif" font-size="14.00" fill="#000000">diamond</text>
</g>
<!-- diamond&#45;&#45;trapezium -->
<g id="edge38" class="edge">
<title>diamond&#45;&#45;trapezium</title>
<path fill="none" stroke="#000000" d="M624.1462,-872C651.5088,-872 683.2411,-872 709.6993,-872"/>
</g>
<!-- plain -->
<g id="node50" class="node">
<title>plain</title>
<text text-anchor="middle" x="331.3588" y="-867.8" font-family="Times,serif" font-size="14.00" fill="#000000">plain</text>
</g>
<!-- plain&#45;&#45;diamond -->
<g id="edge37" class="edge">
<title>plain&#45;&#45;diamond</title>
<path fill="none" stroke="#000000" d="M345.3642,-872C374.8894,-872 445.1006,-872 497.388,-872"/>
</g>
<!-- plaintext -->
<g id="node51" class="node">
<title>plaintext</title>
<text text-anchor="middle" x="94.8061" y="-867.8" font-family="Times,serif" font-size="14.00" fill="#000000">plaintext</text>
</g>
<!-- plaintext&#45;&#45;plain -->
<g id="edge36" class="edge">
<title>plaintext&#45;&#45;plain</title>
<path fill="none" stroke="#000000" d="M127.6977,-872C180.1279,-872 280.4894,-872 317.3408,-872"/>
</g>
<!-- triangle -->
<g id="node52" class="node">
<title>triangle</title>
<polygon fill="none" stroke="#000000" points="765.5006,-964.6016 684.3698,-927.6992 846.6314,-927.6992 765.5006,-964.6016"/>
<text text-anchor="middle" x="765.5006" y="-935.8" font-family="Times,serif" font-size="14.00" fill="#000000">triangle</text>
</g>
<!-- egg -->
<g id="node53" class="node">
<title>egg</title>
<polygon fill="none" stroke="#000000" points="563.4528,-922.0493 565.2289,-922.1479 566.9866,-922.2953 568.7188,-922.4913 570.4183,-922.7353 572.0786,-923.0266 573.6928,-923.3645 575.2549,-923.7479 576.7589,-924.1759 578.1991,-924.6472 579.5703,-925.1606 580.8679,-925.7147 582.0875,-926.308 583.2252,-926.9388 584.2777,-927.6054 585.242,-928.3059 586.1158,-929.0385 586.8972,-929.8012 587.5849,-930.5918 588.1779,-931.4082 588.6758,-932.2481 589.0788,-933.1093 589.3875,-933.9894 589.6028,-934.886 589.7261,-935.7965 589.7593,-936.7186 589.7045,-937.6497 589.5643,-938.5873 589.3414,-939.5287 589.039,-940.4713 588.6603,-941.4127 588.2089,-942.3503 587.6885,-943.2814 587.1027,-944.2035 586.4556,-945.114 585.751,-946.0106 584.9928,-946.8907 584.1851,-947.7519 583.3316,-948.5918 582.4362,-949.4082 581.5026,-950.1988 580.5342,-950.9615 579.5347,-951.6941 578.5071,-952.3946 577.4547,-953.0612 576.3802,-953.692 575.2864,-954.2853 574.1757,-954.8394 573.0504,-955.3528 571.9126,-955.8241 570.7642,-956.2521 569.6069,-956.6355 568.4421,-956.9734 567.2712,-957.2647 566.0954,-957.5087 564.9158,-957.7047 563.7333,-957.8521 562.5489,-957.9507 561.3633,-958 560.1773,-958 558.9917,-957.9507 557.8073,-957.8521 556.6248,-957.7047 555.4452,-957.5087 554.2694,-957.2647 553.0986,-956.9734 551.9338,-956.6355 550.7764,-956.2521 549.628,-955.8241 548.4902,-955.3528 547.3649,-954.8394 546.2542,-954.2853 545.1604,-953.692 544.0859,-953.0612 543.0335,-952.3946 542.0059,-951.6941 541.0064,-950.9615 540.0381,-950.1988 539.1044,-949.4082 538.209,-948.5918 537.3555,-947.7519 536.5478,-946.8907 535.7896,-946.0106 535.085,-945.114 534.4379,-944.2035 533.8522,-943.2814 533.3317,-942.3503 532.8803,-941.4127 532.5016,-940.4713 532.1992,-939.5287 531.9764,-938.5873 531.8361,-937.6497 531.7813,-936.7186 531.8145,-935.7965 531.9378,-934.886 532.1531,-933.9894 532.4618,-933.1093 532.8648,-932.2481 533.3628,-931.4082 533.9557,-930.5918 534.6434,-929.8012 535.4248,-929.0385 536.2986,-928.3059 537.2629,-927.6054 538.3154,-926.9388 539.4531,-926.308 540.6727,-925.7147 541.9703,-925.1606 543.3415,-924.6472 544.7818,-924.1759 546.2857,-923.7479 547.8478,-923.3645 549.4621,-923.0266 551.1223,-922.7353 552.8219,-922.4913 554.554,-922.2953 556.3117,-922.1479 558.0878,-922.0493 559.8749,-922 561.6657,-922 563.4528,-922.0493"/>
<text text-anchor="middle" x="560.7703" y="-935.8" font-family="Times,serif" font-size="14.00" fill="#000000">egg</text>
</g>
<!-- egg&#45;&#45;triangle -->
<g id="edge41" class="edge">
<title>egg&#45;&#45;triangle</title>
<path fill="none" stroke="#000000" d="M589.2372,-940C620.6605,-940 671.977,-940 711.1574,-940"/>
</g>
<!-- point -->
<g id="node54" class="node">
<title>point</title>
<ellipse fill="#000000" stroke="#000000" cx="331.3588" cy="-940" rx="1.8" ry="1.8"/>
</g>
<!-- point&#45;&#45;egg -->
<g id="edge40" class="edge">
<title>point&#45;&#45;egg</title>
<path fill="none" stroke="#000000" d="M333.3421,-940C350.5093,-940 474.7035,-940 531.9765,-940"/>
</g>
<!-- circle -->
<g id="node55" class="node">
<title>circle</title>
<ellipse fill="none" stroke="#000000" cx="94.8061" cy="-940" rx="32.4576" ry="32.4576"/>
<text text-anchor="middle" x="94.8061" y="-935.8" font-family="Times,serif" font-size="14.00" fill="#000000">circle</text>
</g>
<!-- circle&#45;&#45;point -->
<g id="edge39" class="edge">
<title>circle&#45;&#45;point</title>
<path fill="none" stroke="#000000" d="M127.6977,-940C188.1258,-940 312.2235,-940 329.376,-940"/>
</g>
<!-- oval -->
<g id="node56" class="node">
<title>oval</title>
<ellipse fill="none" stroke="#000000" cx="765.5006" cy="-1008" rx="27.8286" ry="18"/>
<text text-anchor="middle" x="765.5006" y="-1003.8" font-family="Times,serif" font-size="14.00" fill="#000000">oval</text>
</g>
<!-- polygon -->
<g id="node57" class="node">
<title>polygon</title>
<polygon fill="none" stroke="#000000" points="608.0375,-1003.9946 598.6756,-1019.2228 560.7703,-1026 522.865,-1019.2228 513.5031,-1003.9946 539.7344,-991.7826 581.8062,-991.7826 608.0375,-1003.9946"/>
<text text-anchor="middle" x="560.7703" y="-1003.8" font-family="Times,serif" font-size="14.00" fill="#000000">polygon</text>
</g>
<!-- polygon&#45;&#45;oval -->
<g id="edge44" class="edge">
<title>polygon&#45;&#45;oval</title>
<path fill="none" stroke="#000000" d="M605.6992,-1008C645.9549,-1008 703.732,-1008 737.6617,-1008"/>
</g>
<!-- box -->
<g id="node58" class="node">
<title>box</title>
<polygon fill="none" stroke="#000000" points="358.3588,-1026 304.3588,-1026 304.3588,-990 358.3588,-990 358.3588,-1026"/>
<text text-anchor="middle" x="331.3588" y="-1003.8" font-family="Times,serif" font-size="14.00" fill="#000000">box</text>
</g>
<!-- box&#45;&#45;polygon -->
<g id="edge43" class="edge">
<title>box&#45;&#45;polygon</title>
<path fill="none" stroke="#000000" d="M358.5762,-1008C397.3875,-1008 469.0987,-1008 515.8542,-1008"/>
</g>
<!-- ellipse -->
<g id="node59" class="node">
<title>ellipse</title>
<ellipse fill="none" stroke="#000000" cx="94.8061" cy="-1008" rx="36.4917" ry="18"/>
<text text-anchor="middle" x="94.8061" y="-1003.8" font-family="Times,serif" font-size="14.00" fill="#000000">ellipse</text>
</g>
<!-- ellipse&#45;&#45;box -->
<g id="edge42" class="edge">
<title>ellipse&#45;&#45;box</title>
<path fill="none" stroke="#000000" d="M131.249,-1008C178.9416,-1008 261.4531,-1008 304.0933,-1008"/>
</g>
</g>
</svg>
