<?xml version="1.0" encoding="UTF-8" standalone="no"?>
<!DOCTYPE svg PUBLIC "-//W3C//DTD SVG 1.1//EN"
 "http://www.w3.org/Graphics/SVG/1.1/DTD/svg11.dtd">
<!-- Generated by graphviz version 2.40.1 (20161225.0304)
 -->
<!-- Title: structs Pages: 1 -->
<svg width="92pt" height="155pt"
 viewBox="0.00 0.00 91.71 155.40" xmlns="http://www.w3.org/2000/svg" xmlns:xlink="http://www.w3.org/1999/xlink">
<g id="graph0" class="graph" transform="scale(1 1) rotate(0) translate(4 151.4)">
<title>structs</title>
<polygon fill="#ffffff" stroke="transparent" points="-4,4 -4,-151.4 87.7146,-151.4 87.7146,4 -4,4"/>
<!-- name -->
<g id="node1" class="node">
<title>name</title>
<polygon fill="none" stroke="#000000" points="0,-72.5 0,-146.9 67.4292,-146.9 67.4292,-72.5 0,-72.5"/>
<text text-anchor="middle" x="11.1073" y="-105.5" font-family="Times,serif" font-size="14.00" fill="#000000">a</text>
<polyline fill="none" stroke="#000000" points="22.2146,-72.5 22.2146,-146.9 "/>
<text text-anchor="middle" x="33.7146" y="-130.3" font-family="Times,serif" font-size="14.00" fill="#000000">b</text>
<polyline fill="none" stroke="#000000" points="22.2146,-122.1 45.2146,-122.1 "/>
<text text-anchor="middle" x="33.7146" y="-105.5" font-family="Times,serif" font-size="14.00" fill="#000000">c</text>
<polyline fill="none" stroke="#000000" points="22.2146,-97.3 45.2146,-97.3 "/>
<text text-anchor="middle" x="33.7146" y="-80.7" font-family="Times,serif" font-size="14.00" fill="#000000">d</text>
<polyline fill="none" stroke="#000000" points="45.2146,-72.5 45.2146,-146.9 "/>
<text text-anchor="middle" x="56.3219" y="-105.5" font-family="Times,serif" font-size="14.00" fill="#000000">e</text>
</g>
<!-- f -->
<g id="node2" class="node">
<title>f</title>
<ellipse fill="none" stroke="#000000" cx="56.7146" cy="-18" rx="27" ry="18"/>
<text text-anchor="middle" x="56.7146" y="-13.8" font-family="Times,serif" font-size="14.00" fill="#000000">f</text>
</g>
<!-- name&#45;&gt;f -->
<g id="edge1" class="edge">
<title>name:subname2&#45;&gt;f</title>
<path fill="none" stroke="#000000" d="M56.7146,-72.7C56.7146,-64.1531 56.7146,-54.8551 56.7146,-46.3903"/>
<polygon fill="#000000" stroke="#000000" points="60.2147,-46.2333 56.7146,-36.2333 53.2147,-46.2334 60.2147,-46.2333"/>
</g>
</g>
</svg>
