<?xml version="1.0" encoding="UTF-8" standalone="no"?>
<!DOCTYPE svg PUBLIC "-//W3C//DTD SVG 1.1//EN"
 "http://www.w3.org/Graphics/SVG/1.1/DTD/svg11.dtd">
<!-- Generated by graphviz version 2.40.1 (20161225.0304)
 -->
<!-- Title: example Pages: 1 -->
<svg width="630pt" height="188pt"
 viewBox="0.00 0.00 630.01 188.00" xmlns="http://www.w3.org/2000/svg" xmlns:xlink="http://www.w3.org/1999/xlink">
<g id="graph0" class="graph" transform="scale(1 1) rotate(0) translate(4 184)">
<title>example</title>
<polygon fill="#ffffff" stroke="transparent" points="-4,4 -4,-184 626.0073,-184 626.0073,4 -4,4"/>
<!-- 2017 -->
<g id="node1" class="node">
<title>2017</title>
<polygon fill="none" stroke="#000000" points="54,-36 0,-36 0,0 54,0 54,-36"/>
<text text-anchor="middle" x="27" y="-13.8" font-family="Times,serif" font-size="14.00" fill="#000000">2017</text>
</g>
<!-- 2018 -->
<g id="node2" class="node">
<title>2018</title>
<ellipse fill="none" stroke="#000000" cx="60" cy="-162" rx="30.2015" ry="18"/>
<text text-anchor="middle" x="60" y="-157.8" font-family="Times,serif" font-size="14.00" fill="#000000">2018</text>
</g>
<!-- 2017&#45;&gt;2018 -->
<g id="edge1" class="edge">
<title>2017&#45;&gt;2018</title>
<path fill="none" stroke="#000000" d="M31.1646,-36.1727C36.8243,-60.8697 46.997,-105.2595 53.6219,-134.1684"/>
<polygon fill="#000000" stroke="#000000" points="50.2418,-135.088 55.8873,-144.0535 57.065,-133.5243 50.2418,-135.088"/>
</g>
<!-- 2019 -->
<g id="node3" class="node">
<title>2019</title>
<ellipse fill="none" stroke="#000000" cx="93" cy="-90" rx="30.2015" ry="18"/>
<text text-anchor="middle" x="93" y="-85.8" font-family="Times,serif" font-size="14.00" fill="#000000">2019</text>
</g>
<!-- 2018&#45;&gt;2019 -->
<g id="edge2" class="edge">
<title>2018&#45;&gt;2019</title>
<path fill="none" stroke="#000000" d="M67.9884,-144.5708C71.8108,-136.2309 76.4726,-126.0598 80.7311,-116.7686"/>
<polygon fill="#000000" stroke="#000000" points="83.9859,-118.0672 84.9708,-107.5182 77.6225,-115.1506 83.9859,-118.0672"/>
</g>
<!-- 2020 -->
<g id="node4" class="node">
<title>2020</title>
<ellipse fill="none" stroke="#000000" cx="102" cy="-18" rx="30.2015" ry="18"/>
<text text-anchor="middle" x="102" y="-13.8" font-family="Times,serif" font-size="14.00" fill="#000000">2020</text>
</g>
<!-- 2019&#45;&gt;2020 -->
<g id="edge3" class="edge">
<title>2019&#45;&gt;2020</title>
<path fill="none" stroke="#000000" d="M95.2711,-71.8314C96.2336,-64.131 97.3782,-54.9743 98.4479,-46.4166"/>
<polygon fill="#000000" stroke="#000000" points="101.9309,-46.7702 99.6983,-36.4133 94.9849,-45.9019 101.9309,-46.7702"/>
</g>
<!-- 201701 -->
<g id="node5" class="node">
<title>201701</title>
<ellipse fill="none" stroke="#000000" cx="190" cy="-18" rx="40.0147" ry="18"/>
<text text-anchor="middle" x="190" y="-13.8" font-family="Times,serif" font-size="14.00" fill="#000000">201701</text>
</g>
<!-- 201702 -->
<g id="node6" class="node">
<title>201702</title>
<ellipse fill="none" stroke="#000000" cx="288" cy="-18" rx="40.0147" ry="18"/>
<text text-anchor="middle" x="288" y="-13.8" font-family="Times,serif" font-size="14.00" fill="#000000">201702</text>
</g>
<!-- 201701&#45;&gt;201702 -->
<g id="edge4" class="edge">
<title>201701&#45;&gt;201702</title>
<path fill="none" stroke="#000000" d="M230.1953,-18C232.6721,-18 235.1488,-18 237.6255,-18"/>
<polygon fill="#000000" stroke="#000000" points="237.8077,-21.5001 247.8077,-18 237.8076,-14.5001 237.8077,-21.5001"/>
</g>
<!-- 201703 -->
<g id="node7" class="node">
<title>201703</title>
<ellipse fill="none" stroke="#000000" cx="386" cy="-18" rx="40.0147" ry="18"/>
<text text-anchor="middle" x="386" y="-13.8" font-family="Times,serif" font-size="14.00" fill="#000000">201703</text>
</g>
<!-- 201702&#45;&gt;201703 -->
<g id="edge5" class="edge">
<title>201702&#45;&gt;201703</title>
<path fill="none" stroke="#000000" d="M328.1953,-18C330.6721,-18 333.1488,-18 335.6255,-18"/>
<polygon fill="#000000" stroke="#000000" points="335.8077,-21.5001 345.8077,-18 335.8076,-14.5001 335.8077,-21.5001"/>
</g>
<!-- 201801 -->
<g id="node8" class="node">
<title>201801</title>
<ellipse fill="none" stroke="#000000" cx="148" cy="-162" rx="40.0147" ry="18"/>
<text text-anchor="middle" x="148" y="-157.8" font-family="Times,serif" font-size="14.00" fill="#000000">201801</text>
</g>
<!-- 201802 -->
<g id="node9" class="node">
<title>201802</title>
<ellipse fill="none" stroke="#000000" cx="246" cy="-162" rx="40.0147" ry="18"/>
<text text-anchor="middle" x="246" y="-157.8" font-family="Times,serif" font-size="14.00" fill="#000000">201802</text>
</g>
<!-- 201801&#45;&gt;201802 -->
<g id="edge6" class="edge">
<title>201801&#45;&gt;201802</title>
<path fill="none" stroke="#000000" d="M188.1953,-162C190.6721,-162 193.1488,-162 195.6255,-162"/>
<polygon fill="#000000" stroke="#000000" points="195.8077,-165.5001 205.8077,-162 195.8076,-158.5001 195.8077,-165.5001"/>
</g>
<!-- 201803 -->
<g id="node10" class="node">
<title>201803</title>
<ellipse fill="none" stroke="#000000" cx="344" cy="-162" rx="40.0147" ry="18"/>
<text text-anchor="middle" x="344" y="-157.8" font-family="Times,serif" font-size="14.00" fill="#000000">201803</text>
</g>
<!-- 201802&#45;&gt;201803 -->
<g id="edge7" class="edge">
<title>201802&#45;&gt;201803</title>
<path fill="none" stroke="#000000" d="M286.1953,-162C288.6721,-162 291.1488,-162 293.6255,-162"/>
<polygon fill="#000000" stroke="#000000" points="293.8077,-165.5001 303.8077,-162 293.8076,-158.5001 293.8077,-165.5001"/>
</g>
<!-- 201901 -->
<g id="node11" class="node">
<title>201901</title>
<ellipse fill="none" stroke="#000000" cx="181" cy="-90" rx="40.0147" ry="18"/>
<text text-anchor="middle" x="181" y="-85.8" font-family="Times,serif" font-size="14.00" fill="#000000">201901</text>
</g>
<!-- 201902 -->
<g id="node12" class="node">
<title>201902</title>
<ellipse fill="none" stroke="#000000" cx="279" cy="-90" rx="40.0147" ry="18"/>
<text text-anchor="middle" x="279" y="-85.8" font-family="Times,serif" font-size="14.00" fill="#000000">201902</text>
</g>
<!-- 201901&#45;&gt;201902 -->
<g id="edge8" class="edge">
<title>201901&#45;&gt;201902</title>
<path fill="none" stroke="#000000" d="M221.1953,-90C223.6721,-90 226.1488,-90 228.6255,-90"/>
<polygon fill="#000000" stroke="#000000" points="228.8077,-93.5001 238.8077,-90 228.8076,-86.5001 228.8077,-93.5001"/>
</g>
<!-- 201903 -->
<g id="node13" class="node">
<title>201903</title>
<ellipse fill="none" stroke="#000000" cx="377" cy="-90" rx="40.0147" ry="18"/>
<text text-anchor="middle" x="377" y="-85.8" font-family="Times,serif" font-size="14.00" fill="#000000">201903</text>
</g>
<!-- 201902&#45;&gt;201903 -->
<g id="edge9" class="edge">
<title>201902&#45;&gt;201903</title>
<path fill="none" stroke="#000000" d="M319.1953,-90C321.6721,-90 324.1488,-90 326.6255,-90"/>
<polygon fill="#000000" stroke="#000000" points="326.8077,-93.5001 336.8077,-90 326.8076,-86.5001 326.8077,-93.5001"/>
</g>
<!-- 202001 -->
<g id="node14" class="node">
<title>202001</title>
<ellipse fill="none" stroke="#000000" cx="484" cy="-18" rx="40.0147" ry="18"/>
<text text-anchor="middle" x="484" y="-13.8" font-family="Times,serif" font-size="14.00" fill="#000000">202001</text>
</g>
<!-- 202002 -->
<g id="node15" class="node">
<title>202002</title>
<ellipse fill="none" stroke="#000000" cx="582" cy="-18" rx="40.0147" ry="18"/>
<text text-anchor="middle" x="582" y="-13.8" font-family="Times,serif" font-size="14.00" fill="#000000">202002</text>
</g>
<!-- 202001&#45;&gt;202002 -->
<g id="edge10" class="edge">
<title>202001&#45;&gt;202002</title>
<path fill="none" stroke="#000000" d="M524.1953,-18C526.6721,-18 529.1488,-18 531.6255,-18"/>
<polygon fill="#000000" stroke="#000000" points="531.8077,-21.5001 541.8077,-18 531.8076,-14.5001 531.8077,-21.5001"/>
</g>
</g>
</svg>
