<?xml version="1.0" encoding="UTF-8" standalone="no"?>
<!DOCTYPE svg PUBLIC "-//W3C//DTD SVG 1.1//EN"
 "http://www.w3.org/Graphics/SVG/1.1/DTD/svg11.dtd">
<!-- Generated by graphviz version 2.40.1 (20161225.0304)
 -->
<!-- Title: Tree Pages: 1 -->
<svg width="338pt" height="467pt"
 viewBox="0.00 0.00 337.92 467.20" xmlns="http://www.w3.org/2000/svg" xmlns:xlink="http://www.w3.org/1999/xlink">
<g id="graph0" class="graph" transform="scale(1 1) rotate(0) translate(4 463.2)">
<title>Tree</title>
<polygon fill="#ffffff" stroke="transparent" points="-4,4 -4,-463.2 333.9179,-463.2 333.9179,4 -4,4"/>
<!-- 0 -->
<g id="node1" class="node">
<title>0</title>
<path fill="#fae6d7" stroke="#000000" d="M149.5212,-459.2C149.5212,-459.2 63.7768,-459.2 63.7768,-459.2 57.7768,-459.2 51.7768,-453.2 51.7768,-447.2 51.7768,-447.2 51.7768,-379.2 51.7768,-379.2 51.7768,-373.2 57.7768,-367.2 63.7768,-367.2 63.7768,-367.2 149.5212,-367.2 149.5212,-367.2 155.5212,-367.2 161.5212,-373.2 161.5212,-379.2 161.5212,-379.2 161.5212,-447.2 161.5212,-447.2 161.5212,-453.2 155.5212,-459.2 149.5212,-459.2"/>
<text text-anchor="start" x="59.9632" y="-442.6" font-family="Helvetica,sans-Serif" font-size="14.00" fill="#000000">Height ≤ 1.635</text>
<text text-anchor="start" x="70.2714" y="-425.8" font-family="Helvetica,sans-Serif" font-size="14.00" fill="#000000">gini = 0.494</text>
<text text-anchor="start" x="64.831" y="-409" font-family="Helvetica,sans-Serif" font-size="14.00" fill="#000000">samples = 18</text>
<text text-anchor="start" x="62.4888" y="-392.2" font-family="Helvetica,sans-Serif" font-size="14.00" fill="#000000">value = [10, 8]</text>
<text text-anchor="start" x="66" y="-375.4" font-family="Helvetica,sans-Serif" font-size="14.00" fill="#000000">class = Short</text>
</g>
<!-- 1 -->
<g id="node2" class="node">
<title>1</title>
<path fill="#e58139" stroke="#000000" d="M85.4475,-322.9003C85.4475,-322.9003 11.8505,-322.9003 11.8505,-322.9003 5.8505,-322.9003 -.1495,-316.9003 -.1495,-310.9003 -.1495,-310.9003 -.1495,-259.4997 -.1495,-259.4997 -.1495,-253.4997 5.8505,-247.4997 11.8505,-247.4997 11.8505,-247.4997 85.4475,-247.4997 85.4475,-247.4997 91.4475,-247.4997 97.4475,-253.4997 97.4475,-259.4997 97.4475,-259.4997 97.4475,-310.9003 97.4475,-310.9003 97.4475,-316.9003 91.4475,-322.9003 85.4475,-322.9003"/>
<text text-anchor="start" x="20.054" y="-306.2" font-family="Helvetica,sans-Serif" font-size="14.00" fill="#000000">gini = 0.0</text>
<text text-anchor="start" x="10.7223" y="-289.4" font-family="Helvetica,sans-Serif" font-size="14.00" fill="#000000">samples = 6</text>
<text text-anchor="start" x="8.3801" y="-272.6" font-family="Helvetica,sans-Serif" font-size="14.00" fill="#000000">value = [6, 0]</text>
<text text-anchor="start" x="8" y="-255.8" font-family="Helvetica,sans-Serif" font-size="14.00" fill="#000000">class = Short</text>
</g>
<!-- 0&#45;&gt;1 -->
<g id="edge1" class="edge">
<title>0&#45;&gt;1</title>
<path fill="none" stroke="#000000" d="M85.7097,-366.9891C80.589,-355.6882 75.104,-343.5835 69.9659,-332.2441"/>
<polygon fill="#000000" stroke="#000000" points="73.0623,-330.5975 65.747,-322.9335 66.6864,-333.4866 73.0623,-330.5975"/>
<text text-anchor="middle" x="56.9413" y="-342.1314" font-family="Helvetica,sans-Serif" font-size="14.00" fill="#000000">True</text>
</g>
<!-- 2 -->
<g id="node3" class="node">
<title>2</title>
<path fill="#9ccef2" stroke="#000000" d="M202.2857,-331.2C202.2857,-331.2 127.0123,-331.2 127.0123,-331.2 121.0123,-331.2 115.0123,-325.2 115.0123,-319.2 115.0123,-319.2 115.0123,-251.2 115.0123,-251.2 115.0123,-245.2 121.0123,-239.2 127.0123,-239.2 127.0123,-239.2 202.2857,-239.2 202.2857,-239.2 208.2857,-239.2 214.2857,-245.2 214.2857,-251.2 214.2857,-251.2 214.2857,-319.2 214.2857,-319.2 214.2857,-325.2 208.2857,-331.2 202.2857,-331.2"/>
<text text-anchor="start" x="133.912" y="-314.6" font-family="Helvetica,sans-Serif" font-size="14.00" fill="#000000">Sex ≤ 0.5</text>
<text text-anchor="start" x="128.2714" y="-297.8" font-family="Helvetica,sans-Serif" font-size="14.00" fill="#000000">gini = 0.444</text>
<text text-anchor="start" x="122.831" y="-281" font-family="Helvetica,sans-Serif" font-size="14.00" fill="#000000">samples = 12</text>
<text text-anchor="start" x="124.3801" y="-264.2" font-family="Helvetica,sans-Serif" font-size="14.00" fill="#000000">value = [4, 8]</text>
<text text-anchor="start" x="129.4523" y="-247.4" font-family="Helvetica,sans-Serif" font-size="14.00" fill="#000000">class = Tall</text>
</g>
<!-- 0&#45;&gt;2 -->
<g id="edge2" class="edge">
<title>0&#45;&gt;2</title>
<path fill="none" stroke="#000000" d="M127.5883,-366.9891C131.4897,-358.3791 135.6025,-349.3026 139.6123,-340.4535"/>
<polygon fill="#000000" stroke="#000000" points="142.801,-341.8962 143.7404,-331.3431 136.4251,-339.0071 142.801,-341.8962"/>
<text text-anchor="middle" x="152.5461" y="-350.541" font-family="Helvetica,sans-Serif" font-size="14.00" fill="#000000">False</text>
</g>
<!-- 3 -->
<g id="node4" class="node">
<title>3</title>
<path fill="#399de5" stroke="#000000" d="M139.6879,-194.9003C139.6879,-194.9003 67.6101,-194.9003 67.6101,-194.9003 61.6101,-194.9003 55.6101,-188.9003 55.6101,-182.9003 55.6101,-182.9003 55.6101,-131.4997 55.6101,-131.4997 55.6101,-125.4997 61.6101,-119.4997 67.6101,-119.4997 67.6101,-119.4997 139.6879,-119.4997 139.6879,-119.4997 145.6879,-119.4997 151.6879,-125.4997 151.6879,-131.4997 151.6879,-131.4997 151.6879,-182.9003 151.6879,-182.9003 151.6879,-188.9003 145.6879,-194.9003 139.6879,-194.9003"/>
<text text-anchor="start" x="75.054" y="-178.2" font-family="Helvetica,sans-Serif" font-size="14.00" fill="#000000">gini = 0.0</text>
<text text-anchor="start" x="65.7223" y="-161.4" font-family="Helvetica,sans-Serif" font-size="14.00" fill="#000000">samples = 4</text>
<text text-anchor="start" x="63.3801" y="-144.6" font-family="Helvetica,sans-Serif" font-size="14.00" fill="#000000">value = [0, 4]</text>
<text text-anchor="start" x="68.4523" y="-127.8" font-family="Helvetica,sans-Serif" font-size="14.00" fill="#000000">class = Tall</text>
</g>
<!-- 2&#45;&gt;3 -->
<g id="edge3" class="edge">
<title>2&#45;&gt;3</title>
<path fill="none" stroke="#000000" d="M142.6266,-238.9891C137.241,-227.6882 131.4724,-215.5835 126.0685,-204.2441"/>
<polygon fill="#000000" stroke="#000000" points="129.0931,-202.4551 121.6314,-194.9335 122.7739,-205.4666 129.0931,-202.4551"/>
</g>
<!-- 4 -->
<g id="node5" class="node">
<title>4</title>
<path fill="#ffffff" stroke="#000000" d="M267.5212,-203.2C267.5212,-203.2 181.7768,-203.2 181.7768,-203.2 175.7768,-203.2 169.7768,-197.2 169.7768,-191.2 169.7768,-191.2 169.7768,-123.2 169.7768,-123.2 169.7768,-117.2 175.7768,-111.2 181.7768,-111.2 181.7768,-111.2 267.5212,-111.2 267.5212,-111.2 273.5212,-111.2 279.5212,-117.2 279.5212,-123.2 279.5212,-123.2 279.5212,-191.2 279.5212,-191.2 279.5212,-197.2 273.5212,-203.2 267.5212,-203.2"/>
<text text-anchor="start" x="177.9632" y="-186.6" font-family="Helvetica,sans-Serif" font-size="14.00" fill="#000000">Height ≤ 1.745</text>
<text text-anchor="start" x="196.054" y="-169.8" font-family="Helvetica,sans-Serif" font-size="14.00" fill="#000000">gini = 0.5</text>
<text text-anchor="start" x="186.7223" y="-153" font-family="Helvetica,sans-Serif" font-size="14.00" fill="#000000">samples = 8</text>
<text text-anchor="start" x="184.3801" y="-136.2" font-family="Helvetica,sans-Serif" font-size="14.00" fill="#000000">value = [4, 4]</text>
<text text-anchor="start" x="184" y="-119.4" font-family="Helvetica,sans-Serif" font-size="14.00" fill="#000000">class = Short</text>
</g>
<!-- 2&#45;&gt;4 -->
<g id="edge4" class="edge">
<title>2&#45;&gt;4</title>
<path fill="none" stroke="#000000" d="M186.3104,-238.9891C190.3463,-230.3791 194.6009,-221.3026 198.7489,-212.4535"/>
<polygon fill="#000000" stroke="#000000" points="201.9441,-213.8832 203.0194,-203.3431 195.6059,-210.9122 201.9441,-213.8832"/>
</g>
<!-- 5 -->
<g id="node6" class="node">
<title>5</title>
<path fill="#e58139" stroke="#000000" d="M203.4475,-75.3003C203.4475,-75.3003 129.8505,-75.3003 129.8505,-75.3003 123.8505,-75.3003 117.8505,-69.3003 117.8505,-63.3003 117.8505,-63.3003 117.8505,-11.8997 117.8505,-11.8997 117.8505,-5.8997 123.8505,.1003 129.8505,.1003 129.8505,.1003 203.4475,.1003 203.4475,.1003 209.4475,.1003 215.4475,-5.8997 215.4475,-11.8997 215.4475,-11.8997 215.4475,-63.3003 215.4475,-63.3003 215.4475,-69.3003 209.4475,-75.3003 203.4475,-75.3003"/>
<text text-anchor="start" x="138.054" y="-58.6" font-family="Helvetica,sans-Serif" font-size="14.00" fill="#000000">gini = 0.0</text>
<text text-anchor="start" x="128.7223" y="-41.8" font-family="Helvetica,sans-Serif" font-size="14.00" fill="#000000">samples = 4</text>
<text text-anchor="start" x="126.3801" y="-25" font-family="Helvetica,sans-Serif" font-size="14.00" fill="#000000">value = [4, 0]</text>
<text text-anchor="start" x="126" y="-8.2" font-family="Helvetica,sans-Serif" font-size="14.00" fill="#000000">class = Short</text>
</g>
<!-- 4&#45;&gt;5 -->
<g id="edge5" class="edge">
<title>4&#45;&gt;5</title>
<path fill="none" stroke="#000000" d="M202.2247,-110.9595C198.0109,-102.2704 193.6016,-93.1781 189.3786,-84.47"/>
<polygon fill="#000000" stroke="#000000" points="192.4001,-82.6794 184.8874,-75.2088 186.1017,-85.7339 192.4001,-82.6794"/>
</g>
<!-- 6 -->
<g id="node7" class="node">
<title>6</title>
<path fill="#399de5" stroke="#000000" d="M317.6879,-75.3003C317.6879,-75.3003 245.6101,-75.3003 245.6101,-75.3003 239.6101,-75.3003 233.6101,-69.3003 233.6101,-63.3003 233.6101,-63.3003 233.6101,-11.8997 233.6101,-11.8997 233.6101,-5.8997 239.6101,.1003 245.6101,.1003 245.6101,.1003 317.6879,.1003 317.6879,.1003 323.6879,.1003 329.6879,-5.8997 329.6879,-11.8997 329.6879,-11.8997 329.6879,-63.3003 329.6879,-63.3003 329.6879,-69.3003 323.6879,-75.3003 317.6879,-75.3003"/>
<text text-anchor="start" x="253.054" y="-58.6" font-family="Helvetica,sans-Serif" font-size="14.00" fill="#000000">gini = 0.0</text>
<text text-anchor="start" x="243.7223" y="-41.8" font-family="Helvetica,sans-Serif" font-size="14.00" fill="#000000">samples = 4</text>
<text text-anchor="start" x="241.3801" y="-25" font-family="Helvetica,sans-Serif" font-size="14.00" fill="#000000">value = [0, 4]</text>
<text text-anchor="start" x="246.4523" y="-8.2" font-family="Helvetica,sans-Serif" font-size="14.00" fill="#000000">class = Tall</text>
</g>
<!-- 4&#45;&gt;6 -->
<g id="edge6" class="edge">
<title>4&#45;&gt;6</title>
<path fill="none" stroke="#000000" d="M246.6867,-110.9595C250.8278,-102.2704 255.1611,-93.1781 259.3113,-84.47"/>
<polygon fill="#000000" stroke="#000000" points="262.5823,-85.7419 263.7251,-75.2088 256.2632,-82.7302 262.5823,-85.7419"/>
</g>
</g>
</svg>
