<?xml version="1.0" encoding="UTF-8" standalone="no"?>
<!DOCTYPE svg PUBLIC "-//W3C//DTD SVG 1.1//EN"
 "http://www.w3.org/Graphics/SVG/1.1/DTD/svg11.dtd">
<!-- Generated by graphviz version 2.40.1 (20161225.0304)
 -->
<!-- Title: Tree Pages: 1 -->
<svg width="876pt" height="723pt"
 viewBox="0.00 0.00 875.81 723.20" xmlns="http://www.w3.org/2000/svg" xmlns:xlink="http://www.w3.org/1999/xlink">
<g id="graph0" class="graph" transform="scale(1 1) rotate(0) translate(4 719.2)">
<title>Tree</title>
<polygon fill="#ffffff" stroke="transparent" points="-4,4 -4,-719.2 871.8057,-719.2 871.8057,4 -4,4"/>
<!-- 0 -->
<g id="node1" class="node">
<title>0</title>
<path fill="#ffffff" stroke="#000000" d="M521.9955,-715.2C521.9955,-715.2 393.7317,-715.2 393.7317,-715.2 387.7317,-715.2 381.7317,-709.2 381.7317,-703.2 381.7317,-703.2 381.7317,-635.2 381.7317,-635.2 381.7317,-629.2 387.7317,-623.2 393.7317,-623.2 393.7317,-623.2 521.9955,-623.2 521.9955,-623.2 527.9955,-623.2 533.9955,-629.2 533.9955,-635.2 533.9955,-635.2 533.9955,-703.2 533.9955,-703.2 533.9955,-709.2 527.9955,-715.2 521.9955,-715.2"/>
<text text-anchor="start" x="389.7977" y="-698.6" font-family="Helvetica,sans-Serif" font-size="14.00" fill="#000000">petal width (cm) ≤ 0.8</text>
<text text-anchor="start" x="421.486" y="-681.8" font-family="Helvetica,sans-Serif" font-size="14.00" fill="#000000">gini = 0.667</text>
<text text-anchor="start" x="412.1543" y="-665" font-family="Helvetica,sans-Serif" font-size="14.00" fill="#000000">samples = 150</text>
<text text-anchor="start" x="398.1389" y="-648.2" font-family="Helvetica,sans-Serif" font-size="14.00" fill="#000000">value = [50, 50, 50]</text>
<text text-anchor="start" x="413.3219" y="-631.4" font-family="Helvetica,sans-Serif" font-size="14.00" fill="#000000">class = setosa</text>
</g>
<!-- 1 -->
<g id="node2" class="node">
<title>1</title>
<path fill="#e58139" stroke="#000000" d="M426.7479,-578.9003C426.7479,-578.9003 330.9793,-578.9003 330.9793,-578.9003 324.9793,-578.9003 318.9793,-572.9003 318.9793,-566.9003 318.9793,-566.9003 318.9793,-515.4997 318.9793,-515.4997 318.9793,-509.4997 324.9793,-503.4997 330.9793,-503.4997 330.9793,-503.4997 426.7479,-503.4997 426.7479,-503.4997 432.7479,-503.4997 438.7479,-509.4997 438.7479,-515.4997 438.7479,-515.4997 438.7479,-566.9003 438.7479,-566.9003 438.7479,-572.9003 432.7479,-578.9003 426.7479,-578.9003"/>
<text text-anchor="start" x="350.2686" y="-562.2" font-family="Helvetica,sans-Serif" font-size="14.00" fill="#000000">gini = 0.0</text>
<text text-anchor="start" x="337.0456" y="-545.4" font-family="Helvetica,sans-Serif" font-size="14.00" fill="#000000">samples = 50</text>
<text text-anchor="start" x="326.9215" y="-528.6" font-family="Helvetica,sans-Serif" font-size="14.00" fill="#000000">value = [50, 0, 0]</text>
<text text-anchor="start" x="334.3219" y="-511.8" font-family="Helvetica,sans-Serif" font-size="14.00" fill="#000000">class = setosa</text>
</g>
<!-- 0&#45;&gt;1 -->
<g id="edge1" class="edge">
<title>0&#45;&gt;1</title>
<path fill="none" stroke="#000000" d="M429.3428,-622.9891C422.2285,-611.4622 414.5981,-599.099 407.4793,-587.5647"/>
<polygon fill="#000000" stroke="#000000" points="410.3828,-585.605 402.1522,-578.9335 404.426,-589.2815 410.3828,-585.605"/>
<text text-anchor="middle" x="396.3935" y="-599.0612" font-family="Helvetica,sans-Serif" font-size="14.00" fill="#000000">True</text>
</g>
<!-- 2 -->
<g id="node3" class="node">
<title>2</title>
<path fill="#ffffff" stroke="#000000" d="M604.778,-587.2C604.778,-587.2 468.9492,-587.2 468.9492,-587.2 462.9492,-587.2 456.9492,-581.2 456.9492,-575.2 456.9492,-575.2 456.9492,-507.2 456.9492,-507.2 456.9492,-501.2 462.9492,-495.2 468.9492,-495.2 468.9492,-495.2 604.778,-495.2 604.778,-495.2 610.778,-495.2 616.778,-501.2 616.778,-507.2 616.778,-507.2 616.778,-575.2 616.778,-575.2 616.778,-581.2 610.778,-587.2 604.778,-587.2"/>
<text text-anchor="start" x="464.9064" y="-570.6" font-family="Helvetica,sans-Serif" font-size="14.00" fill="#000000">petal width (cm) ≤ 1.75</text>
<text text-anchor="start" x="508.2686" y="-553.8" font-family="Helvetica,sans-Serif" font-size="14.00" fill="#000000">gini = 0.5</text>
<text text-anchor="start" x="491.1543" y="-537" font-family="Helvetica,sans-Serif" font-size="14.00" fill="#000000">samples = 100</text>
<text text-anchor="start" x="481.0302" y="-520.2" font-family="Helvetica,sans-Serif" font-size="14.00" fill="#000000">value = [0, 50, 50]</text>
<text text-anchor="start" x="483" y="-503.4" font-family="Helvetica,sans-Serif" font-size="14.00" fill="#000000">class = versicolor</text>
</g>
<!-- 0&#45;&gt;2 -->
<g id="edge2" class="edge">
<title>0&#45;&gt;2</title>
<path fill="none" stroke="#000000" d="M486.3844,-622.9891C491.8102,-614.1979 497.5363,-604.9202 503.1066,-595.8949"/>
<polygon fill="#000000" stroke="#000000" points="506.1109,-597.6911 508.3847,-587.3431 500.1541,-594.0146 506.1109,-597.6911"/>
<text text-anchor="middle" x="514.1434" y="-607.4708" font-family="Helvetica,sans-Serif" font-size="14.00" fill="#000000">False</text>
</g>
<!-- 3 -->
<g id="node4" class="node">
<title>3</title>
<path fill="#4de88e" stroke="#000000" d="M493.737,-459.2C493.737,-459.2 351.9902,-459.2 351.9902,-459.2 345.9902,-459.2 339.9902,-453.2 339.9902,-447.2 339.9902,-447.2 339.9902,-379.2 339.9902,-379.2 339.9902,-373.2 345.9902,-367.2 351.9902,-367.2 351.9902,-367.2 493.737,-367.2 493.737,-367.2 499.737,-367.2 505.737,-373.2 505.737,-379.2 505.737,-379.2 505.737,-447.2 505.737,-447.2 505.737,-453.2 499.737,-459.2 493.737,-459.2"/>
<text text-anchor="start" x="348.1771" y="-442.6" font-family="Helvetica,sans-Serif" font-size="14.00" fill="#000000">petal length (cm) ≤ 4.95</text>
<text text-anchor="start" x="386.486" y="-425.8" font-family="Helvetica,sans-Serif" font-size="14.00" fill="#000000">gini = 0.168</text>
<text text-anchor="start" x="381.0456" y="-409" font-family="Helvetica,sans-Serif" font-size="14.00" fill="#000000">samples = 54</text>
<text text-anchor="start" x="370.9215" y="-392.2" font-family="Helvetica,sans-Serif" font-size="14.00" fill="#000000">value = [0, 49, 5]</text>
<text text-anchor="start" x="369" y="-375.4" font-family="Helvetica,sans-Serif" font-size="14.00" fill="#000000">class = versicolor</text>
</g>
<!-- 2&#45;&gt;3 -->
<g id="edge3" class="edge">
<title>2&#45;&gt;3</title>
<path fill="none" stroke="#000000" d="M495.707,-494.9891C487.6352,-485.926 479.1029,-476.3459 470.8311,-467.0582"/>
<polygon fill="#000000" stroke="#000000" points="473.2244,-464.483 463.9598,-459.3431 467.997,-469.1386 473.2244,-464.483"/>
</g>
<!-- 12 -->
<g id="node13" class="node">
<title>12</title>
<path fill="#843de6" stroke="#000000" d="M722.737,-459.2C722.737,-459.2 580.9902,-459.2 580.9902,-459.2 574.9902,-459.2 568.9902,-453.2 568.9902,-447.2 568.9902,-447.2 568.9902,-379.2 568.9902,-379.2 568.9902,-373.2 574.9902,-367.2 580.9902,-367.2 580.9902,-367.2 722.737,-367.2 722.737,-367.2 728.737,-367.2 734.737,-373.2 734.737,-379.2 734.737,-379.2 734.737,-447.2 734.737,-447.2 734.737,-453.2 728.737,-459.2 722.737,-459.2"/>
<text text-anchor="start" x="577.1771" y="-442.6" font-family="Helvetica,sans-Serif" font-size="14.00" fill="#000000">petal length (cm) ≤ 4.85</text>
<text text-anchor="start" x="615.486" y="-425.8" font-family="Helvetica,sans-Serif" font-size="14.00" fill="#000000">gini = 0.043</text>
<text text-anchor="start" x="610.0456" y="-409" font-family="Helvetica,sans-Serif" font-size="14.00" fill="#000000">samples = 46</text>
<text text-anchor="start" x="599.9215" y="-392.2" font-family="Helvetica,sans-Serif" font-size="14.00" fill="#000000">value = [0, 1, 45]</text>
<text text-anchor="start" x="602.277" y="-375.4" font-family="Helvetica,sans-Serif" font-size="14.00" fill="#000000">class = virginica</text>
</g>
<!-- 2&#45;&gt;12 -->
<g id="edge12" class="edge">
<title>2&#45;&gt;12</title>
<path fill="none" stroke="#000000" d="M578.3812,-494.9891C586.5238,-485.926 595.1309,-476.3459 603.4754,-467.0582"/>
<polygon fill="#000000" stroke="#000000" points="606.3272,-469.121 610.4069,-459.3431 601.1201,-464.4427 606.3272,-469.121"/>
</g>
<!-- 4 -->
<g id="node5" class="node">
<title>4</title>
<path fill="#3de684" stroke="#000000" d="M266.778,-331.2C266.778,-331.2 130.9492,-331.2 130.9492,-331.2 124.9492,-331.2 118.9492,-325.2 118.9492,-319.2 118.9492,-319.2 118.9492,-251.2 118.9492,-251.2 118.9492,-245.2 124.9492,-239.2 130.9492,-239.2 130.9492,-239.2 266.778,-239.2 266.778,-239.2 272.778,-239.2 278.778,-245.2 278.778,-251.2 278.778,-251.2 278.778,-319.2 278.778,-319.2 278.778,-325.2 272.778,-331.2 266.778,-331.2"/>
<text text-anchor="start" x="126.9064" y="-314.6" font-family="Helvetica,sans-Serif" font-size="14.00" fill="#000000">petal width (cm) ≤ 1.65</text>
<text text-anchor="start" x="162.486" y="-297.8" font-family="Helvetica,sans-Serif" font-size="14.00" fill="#000000">gini = 0.041</text>
<text text-anchor="start" x="157.0456" y="-281" font-family="Helvetica,sans-Serif" font-size="14.00" fill="#000000">samples = 48</text>
<text text-anchor="start" x="146.9215" y="-264.2" font-family="Helvetica,sans-Serif" font-size="14.00" fill="#000000">value = [0, 47, 1]</text>
<text text-anchor="start" x="145" y="-247.4" font-family="Helvetica,sans-Serif" font-size="14.00" fill="#000000">class = versicolor</text>
</g>
<!-- 3&#45;&gt;4 -->
<g id="edge4" class="edge">
<title>3&#45;&gt;4</title>
<path fill="none" stroke="#000000" d="M342.3109,-367.1699C324.6336,-357.0686 305.8188,-346.3173 287.8324,-336.0393"/>
<polygon fill="#000000" stroke="#000000" points="289.4968,-332.9593 279.0778,-331.0367 286.0238,-339.037 289.4968,-332.9593"/>
</g>
<!-- 7 -->
<g id="node8" class="node">
<title>7</title>
<path fill="#c09cf2" stroke="#000000" d="M490.778,-331.2C490.778,-331.2 354.9492,-331.2 354.9492,-331.2 348.9492,-331.2 342.9492,-325.2 342.9492,-319.2 342.9492,-319.2 342.9492,-251.2 342.9492,-251.2 342.9492,-245.2 348.9492,-239.2 354.9492,-239.2 354.9492,-239.2 490.778,-239.2 490.778,-239.2 496.778,-239.2 502.778,-245.2 502.778,-251.2 502.778,-251.2 502.778,-319.2 502.778,-319.2 502.778,-325.2 496.778,-331.2 490.778,-331.2"/>
<text text-anchor="start" x="350.9064" y="-314.6" font-family="Helvetica,sans-Serif" font-size="14.00" fill="#000000">petal width (cm) ≤ 1.55</text>
<text text-anchor="start" x="386.486" y="-297.8" font-family="Helvetica,sans-Serif" font-size="14.00" fill="#000000">gini = 0.444</text>
<text text-anchor="start" x="384.9369" y="-281" font-family="Helvetica,sans-Serif" font-size="14.00" fill="#000000">samples = 6</text>
<text text-anchor="start" x="374.8128" y="-264.2" font-family="Helvetica,sans-Serif" font-size="14.00" fill="#000000">value = [0, 2, 4]</text>
<text text-anchor="start" x="373.277" y="-247.4" font-family="Helvetica,sans-Serif" font-size="14.00" fill="#000000">class = virginica</text>
</g>
<!-- 3&#45;&gt;7 -->
<g id="edge7" class="edge">
<title>3&#45;&gt;7</title>
<path fill="none" stroke="#000000" d="M422.8636,-366.9891C422.8636,-358.7417 422.8636,-350.0661 422.8636,-341.5724"/>
<polygon fill="#000000" stroke="#000000" points="426.3637,-341.3431 422.8636,-331.3431 419.3637,-341.3431 426.3637,-341.3431"/>
</g>
<!-- 5 -->
<g id="node6" class="node">
<title>5</title>
<path fill="#39e581" stroke="#000000" d="M111.5911,-194.9003C111.5911,-194.9003 12.1361,-194.9003 12.1361,-194.9003 6.1361,-194.9003 .1361,-188.9003 .1361,-182.9003 .1361,-182.9003 .1361,-131.4997 .1361,-131.4997 .1361,-125.4997 6.1361,-119.4997 12.1361,-119.4997 12.1361,-119.4997 111.5911,-119.4997 111.5911,-119.4997 117.5911,-119.4997 123.5911,-125.4997 123.5911,-131.4997 123.5911,-131.4997 123.5911,-182.9003 123.5911,-182.9003 123.5911,-188.9003 117.5911,-194.9003 111.5911,-194.9003"/>
<text text-anchor="start" x="33.2686" y="-178.2" font-family="Helvetica,sans-Serif" font-size="14.00" fill="#000000">gini = 0.0</text>
<text text-anchor="start" x="20.0456" y="-161.4" font-family="Helvetica,sans-Serif" font-size="14.00" fill="#000000">samples = 47</text>
<text text-anchor="start" x="9.9215" y="-144.6" font-family="Helvetica,sans-Serif" font-size="14.00" fill="#000000">value = [0, 47, 0]</text>
<text text-anchor="start" x="8" y="-127.8" font-family="Helvetica,sans-Serif" font-size="14.00" fill="#000000">class = versicolor</text>
</g>
<!-- 4&#45;&gt;5 -->
<g id="edge5" class="edge">
<title>4&#45;&gt;5</title>
<path fill="none" stroke="#000000" d="M149.4035,-238.9891C136.4613,-226.8971 122.5342,-213.8849 109.6794,-201.8746"/>
<polygon fill="#000000" stroke="#000000" points="111.9467,-199.2031 102.2502,-194.9335 107.1678,-204.318 111.9467,-199.2031"/>
</g>
<!-- 6 -->
<g id="node7" class="node">
<title>6</title>
<path fill="#8139e5" stroke="#000000" d="M244.5369,-194.9003C244.5369,-194.9003 153.1903,-194.9003 153.1903,-194.9003 147.1903,-194.9003 141.1903,-188.9003 141.1903,-182.9003 141.1903,-182.9003 141.1903,-131.4997 141.1903,-131.4997 141.1903,-125.4997 147.1903,-119.4997 153.1903,-119.4997 153.1903,-119.4997 244.5369,-119.4997 244.5369,-119.4997 250.5369,-119.4997 256.5369,-125.4997 256.5369,-131.4997 256.5369,-131.4997 256.5369,-182.9003 256.5369,-182.9003 256.5369,-188.9003 250.5369,-194.9003 244.5369,-194.9003"/>
<text text-anchor="start" x="170.2686" y="-178.2" font-family="Helvetica,sans-Serif" font-size="14.00" fill="#000000">gini = 0.0</text>
<text text-anchor="start" x="160.9369" y="-161.4" font-family="Helvetica,sans-Serif" font-size="14.00" fill="#000000">samples = 1</text>
<text text-anchor="start" x="150.8128" y="-144.6" font-family="Helvetica,sans-Serif" font-size="14.00" fill="#000000">value = [0, 0, 1]</text>
<text text-anchor="start" x="149.277" y="-127.8" font-family="Helvetica,sans-Serif" font-size="14.00" fill="#000000">class = virginica</text>
</g>
<!-- 4&#45;&gt;6 -->
<g id="edge6" class="edge">
<title>4&#45;&gt;6</title>
<path fill="none" stroke="#000000" d="M198.8636,-238.9891C198.8636,-228.0272 198.8636,-216.309 198.8636,-205.2667"/>
<polygon fill="#000000" stroke="#000000" points="202.3637,-204.9335 198.8636,-194.9335 195.3637,-204.9335 202.3637,-204.9335"/>
</g>
<!-- 8 -->
<g id="node9" class="node">
<title>8</title>
<path fill="#8139e5" stroke="#000000" d="M377.5369,-194.9003C377.5369,-194.9003 286.1903,-194.9003 286.1903,-194.9003 280.1903,-194.9003 274.1903,-188.9003 274.1903,-182.9003 274.1903,-182.9003 274.1903,-131.4997 274.1903,-131.4997 274.1903,-125.4997 280.1903,-119.4997 286.1903,-119.4997 286.1903,-119.4997 377.5369,-119.4997 377.5369,-119.4997 383.5369,-119.4997 389.5369,-125.4997 389.5369,-131.4997 389.5369,-131.4997 389.5369,-182.9003 389.5369,-182.9003 389.5369,-188.9003 383.5369,-194.9003 377.5369,-194.9003"/>
<text text-anchor="start" x="303.2686" y="-178.2" font-family="Helvetica,sans-Serif" font-size="14.00" fill="#000000">gini = 0.0</text>
<text text-anchor="start" x="293.9369" y="-161.4" font-family="Helvetica,sans-Serif" font-size="14.00" fill="#000000">samples = 3</text>
<text text-anchor="start" x="283.8128" y="-144.6" font-family="Helvetica,sans-Serif" font-size="14.00" fill="#000000">value = [0, 0, 3]</text>
<text text-anchor="start" x="282.277" y="-127.8" font-family="Helvetica,sans-Serif" font-size="14.00" fill="#000000">class = virginica</text>
</g>
<!-- 7&#45;&gt;8 -->
<g id="edge8" class="edge">
<title>7&#45;&gt;8</title>
<path fill="none" stroke="#000000" d="M390.0105,-238.9891C381.7353,-227.3492 372.8538,-214.8565 364.585,-203.2257"/>
<polygon fill="#000000" stroke="#000000" points="367.3367,-201.0557 358.6898,-194.9335 361.6315,-205.1118 367.3367,-201.0557"/>
</g>
<!-- 9 -->
<g id="node10" class="node">
<title>9</title>
<path fill="#9cf2c0" stroke="#000000" d="M564.3467,-203.2C564.3467,-203.2 419.3805,-203.2 419.3805,-203.2 413.3805,-203.2 407.3805,-197.2 407.3805,-191.2 407.3805,-191.2 407.3805,-123.2 407.3805,-123.2 407.3805,-117.2 413.3805,-111.2 419.3805,-111.2 419.3805,-111.2 564.3467,-111.2 564.3467,-111.2 570.3467,-111.2 576.3467,-117.2 576.3467,-123.2 576.3467,-123.2 576.3467,-191.2 576.3467,-191.2 576.3467,-197.2 570.3467,-203.2 564.3467,-203.2"/>
<text text-anchor="start" x="415.6224" y="-186.6" font-family="Helvetica,sans-Serif" font-size="14.00" fill="#000000">sepal length (cm) ≤ 6.95</text>
<text text-anchor="start" x="455.486" y="-169.8" font-family="Helvetica,sans-Serif" font-size="14.00" fill="#000000">gini = 0.444</text>
<text text-anchor="start" x="453.9369" y="-153" font-family="Helvetica,sans-Serif" font-size="14.00" fill="#000000">samples = 3</text>
<text text-anchor="start" x="443.8128" y="-136.2" font-family="Helvetica,sans-Serif" font-size="14.00" fill="#000000">value = [0, 2, 1]</text>
<text text-anchor="start" x="438" y="-119.4" font-family="Helvetica,sans-Serif" font-size="14.00" fill="#000000">class = versicolor</text>
</g>
<!-- 7&#45;&gt;9 -->
<g id="edge9" class="edge">
<title>7&#45;&gt;9</title>
<path fill="none" stroke="#000000" d="M447.7742,-238.9891C452.4643,-230.2885 457.4113,-221.1115 462.2291,-212.1741"/>
<polygon fill="#000000" stroke="#000000" points="465.3253,-213.8064 466.9896,-203.3431 459.1636,-210.4848 465.3253,-213.8064"/>
</g>
<!-- 10 -->
<g id="node11" class="node">
<title>10</title>
<path fill="#39e581" stroke="#000000" d="M472.5911,-75.3003C472.5911,-75.3003 373.1361,-75.3003 373.1361,-75.3003 367.1361,-75.3003 361.1361,-69.3003 361.1361,-63.3003 361.1361,-63.3003 361.1361,-11.8997 361.1361,-11.8997 361.1361,-5.8997 367.1361,.1003 373.1361,.1003 373.1361,.1003 472.5911,.1003 472.5911,.1003 478.5911,.1003 484.5911,-5.8997 484.5911,-11.8997 484.5911,-11.8997 484.5911,-63.3003 484.5911,-63.3003 484.5911,-69.3003 478.5911,-75.3003 472.5911,-75.3003"/>
<text text-anchor="start" x="394.2686" y="-58.6" font-family="Helvetica,sans-Serif" font-size="14.00" fill="#000000">gini = 0.0</text>
<text text-anchor="start" x="384.9369" y="-41.8" font-family="Helvetica,sans-Serif" font-size="14.00" fill="#000000">samples = 2</text>
<text text-anchor="start" x="374.8128" y="-25" font-family="Helvetica,sans-Serif" font-size="14.00" fill="#000000">value = [0, 2, 0]</text>
<text text-anchor="start" x="369" y="-8.2" font-family="Helvetica,sans-Serif" font-size="14.00" fill="#000000">class = versicolor</text>
</g>
<!-- 9&#45;&gt;10 -->
<g id="edge10" class="edge">
<title>9&#45;&gt;10</title>
<path fill="none" stroke="#000000" d="M465.1864,-110.9595C460.0668,-102.0855 454.7046,-92.791 449.5836,-83.9147"/>
<polygon fill="#000000" stroke="#000000" points="452.5899,-82.1216 444.561,-75.2088 446.5266,-85.6197 452.5899,-82.1216"/>
</g>
<!-- 11 -->
<g id="node12" class="node">
<title>11</title>
<path fill="#8139e5" stroke="#000000" d="M605.5369,-75.3003C605.5369,-75.3003 514.1903,-75.3003 514.1903,-75.3003 508.1903,-75.3003 502.1903,-69.3003 502.1903,-63.3003 502.1903,-63.3003 502.1903,-11.8997 502.1903,-11.8997 502.1903,-5.8997 508.1903,.1003 514.1903,.1003 514.1903,.1003 605.5369,.1003 605.5369,.1003 611.5369,.1003 617.5369,-5.8997 617.5369,-11.8997 617.5369,-11.8997 617.5369,-63.3003 617.5369,-63.3003 617.5369,-69.3003 611.5369,-75.3003 605.5369,-75.3003"/>
<text text-anchor="start" x="531.2686" y="-58.6" font-family="Helvetica,sans-Serif" font-size="14.00" fill="#000000">gini = 0.0</text>
<text text-anchor="start" x="521.9369" y="-41.8" font-family="Helvetica,sans-Serif" font-size="14.00" fill="#000000">samples = 1</text>
<text text-anchor="start" x="511.8128" y="-25" font-family="Helvetica,sans-Serif" font-size="14.00" fill="#000000">value = [0, 0, 1]</text>
<text text-anchor="start" x="510.277" y="-8.2" font-family="Helvetica,sans-Serif" font-size="14.00" fill="#000000">class = virginica</text>
</g>
<!-- 9&#45;&gt;11 -->
<g id="edge11" class="edge">
<title>9&#45;&gt;11</title>
<path fill="none" stroke="#000000" d="M518.1542,-110.9595C523.1996,-102.0855 528.4841,-92.791 533.5308,-83.9147"/>
<polygon fill="#000000" stroke="#000000" points="536.5806,-85.6319 538.4807,-75.2088 530.4954,-82.1721 536.5806,-85.6319"/>
</g>
<!-- 13 -->
<g id="node14" class="node">
<title>13</title>
<path fill="#c09cf2" stroke="#000000" d="M717.605,-331.2C717.605,-331.2 586.1222,-331.2 586.1222,-331.2 580.1222,-331.2 574.1222,-325.2 574.1222,-319.2 574.1222,-319.2 574.1222,-251.2 574.1222,-251.2 574.1222,-245.2 580.1222,-239.2 586.1222,-239.2 586.1222,-239.2 717.605,-239.2 717.605,-239.2 723.605,-239.2 729.605,-245.2 729.605,-251.2 729.605,-251.2 729.605,-319.2 729.605,-319.2 729.605,-325.2 723.605,-331.2 717.605,-331.2"/>
<text text-anchor="start" x="582.243" y="-314.6" font-family="Helvetica,sans-Serif" font-size="14.00" fill="#000000">sepal width (cm) ≤ 3.1</text>
<text text-anchor="start" x="615.486" y="-297.8" font-family="Helvetica,sans-Serif" font-size="14.00" fill="#000000">gini = 0.444</text>
<text text-anchor="start" x="613.9369" y="-281" font-family="Helvetica,sans-Serif" font-size="14.00" fill="#000000">samples = 3</text>
<text text-anchor="start" x="603.8128" y="-264.2" font-family="Helvetica,sans-Serif" font-size="14.00" fill="#000000">value = [0, 1, 2]</text>
<text text-anchor="start" x="602.277" y="-247.4" font-family="Helvetica,sans-Serif" font-size="14.00" fill="#000000">class = virginica</text>
</g>
<!-- 12&#45;&gt;13 -->
<g id="edge13" class="edge">
<title>12&#45;&gt;13</title>
<path fill="none" stroke="#000000" d="M651.8636,-366.9891C651.8636,-358.7417 651.8636,-350.0661 651.8636,-341.5724"/>
<polygon fill="#000000" stroke="#000000" points="655.3637,-341.3431 651.8636,-331.3431 648.3637,-341.3431 655.3637,-341.3431"/>
</g>
<!-- 16 -->
<g id="node17" class="node">
<title>16</title>
<path fill="#8139e5" stroke="#000000" d="M855.7479,-322.9003C855.7479,-322.9003 759.9793,-322.9003 759.9793,-322.9003 753.9793,-322.9003 747.9793,-316.9003 747.9793,-310.9003 747.9793,-310.9003 747.9793,-259.4997 747.9793,-259.4997 747.9793,-253.4997 753.9793,-247.4997 759.9793,-247.4997 759.9793,-247.4997 855.7479,-247.4997 855.7479,-247.4997 861.7479,-247.4997 867.7479,-253.4997 867.7479,-259.4997 867.7479,-259.4997 867.7479,-310.9003 867.7479,-310.9003 867.7479,-316.9003 861.7479,-322.9003 855.7479,-322.9003"/>
<text text-anchor="start" x="779.2686" y="-306.2" font-family="Helvetica,sans-Serif" font-size="14.00" fill="#000000">gini = 0.0</text>
<text text-anchor="start" x="766.0456" y="-289.4" font-family="Helvetica,sans-Serif" font-size="14.00" fill="#000000">samples = 43</text>
<text text-anchor="start" x="755.9215" y="-272.6" font-family="Helvetica,sans-Serif" font-size="14.00" fill="#000000">value = [0, 0, 43]</text>
<text text-anchor="start" x="758.277" y="-255.8" font-family="Helvetica,sans-Serif" font-size="14.00" fill="#000000">class = virginica</text>
</g>
<!-- 12&#45;&gt;16 -->
<g id="edge16" class="edge">
<title>12&#45;&gt;16</title>
<path fill="none" stroke="#000000" d="M708.1832,-366.9891C723.058,-354.7841 739.0754,-341.6416 753.8265,-329.5382"/>
<polygon fill="#000000" stroke="#000000" points="756.3653,-331.9825 761.8759,-322.9335 751.925,-326.5709 756.3653,-331.9825"/>
</g>
<!-- 14 -->
<g id="node15" class="node">
<title>14</title>
<path fill="#8139e5" stroke="#000000" d="M697.5369,-194.9003C697.5369,-194.9003 606.1903,-194.9003 606.1903,-194.9003 600.1903,-194.9003 594.1903,-188.9003 594.1903,-182.9003 594.1903,-182.9003 594.1903,-131.4997 594.1903,-131.4997 594.1903,-125.4997 600.1903,-119.4997 606.1903,-119.4997 606.1903,-119.4997 697.5369,-119.4997 697.5369,-119.4997 703.5369,-119.4997 709.5369,-125.4997 709.5369,-131.4997 709.5369,-131.4997 709.5369,-182.9003 709.5369,-182.9003 709.5369,-188.9003 703.5369,-194.9003 697.5369,-194.9003"/>
<text text-anchor="start" x="623.2686" y="-178.2" font-family="Helvetica,sans-Serif" font-size="14.00" fill="#000000">gini = 0.0</text>
<text text-anchor="start" x="613.9369" y="-161.4" font-family="Helvetica,sans-Serif" font-size="14.00" fill="#000000">samples = 2</text>
<text text-anchor="start" x="603.8128" y="-144.6" font-family="Helvetica,sans-Serif" font-size="14.00" fill="#000000">value = [0, 0, 2]</text>
<text text-anchor="start" x="602.277" y="-127.8" font-family="Helvetica,sans-Serif" font-size="14.00" fill="#000000">class = virginica</text>
</g>
<!-- 13&#45;&gt;14 -->
<g id="edge14" class="edge">
<title>13&#45;&gt;14</title>
<path fill="none" stroke="#000000" d="M651.8636,-238.9891C651.8636,-228.0272 651.8636,-216.309 651.8636,-205.2667"/>
<polygon fill="#000000" stroke="#000000" points="655.3637,-204.9335 651.8636,-194.9335 648.3637,-204.9335 655.3637,-204.9335"/>
</g>
<!-- 15 -->
<g id="node16" class="node">
<title>15</title>
<path fill="#39e581" stroke="#000000" d="M838.5911,-194.9003C838.5911,-194.9003 739.1361,-194.9003 739.1361,-194.9003 733.1361,-194.9003 727.1361,-188.9003 727.1361,-182.9003 727.1361,-182.9003 727.1361,-131.4997 727.1361,-131.4997 727.1361,-125.4997 733.1361,-119.4997 739.1361,-119.4997 739.1361,-119.4997 838.5911,-119.4997 838.5911,-119.4997 844.5911,-119.4997 850.5911,-125.4997 850.5911,-131.4997 850.5911,-131.4997 850.5911,-182.9003 850.5911,-182.9003 850.5911,-188.9003 844.5911,-194.9003 838.5911,-194.9003"/>
<text text-anchor="start" x="760.2686" y="-178.2" font-family="Helvetica,sans-Serif" font-size="14.00" fill="#000000">gini = 0.0</text>
<text text-anchor="start" x="750.9369" y="-161.4" font-family="Helvetica,sans-Serif" font-size="14.00" fill="#000000">samples = 1</text>
<text text-anchor="start" x="740.8128" y="-144.6" font-family="Helvetica,sans-Serif" font-size="14.00" fill="#000000">value = [0, 1, 0]</text>
<text text-anchor="start" x="735" y="-127.8" font-family="Helvetica,sans-Serif" font-size="14.00" fill="#000000">class = versicolor</text>
</g>
<!-- 13&#45;&gt;15 -->
<g id="edge15" class="edge">
<title>13&#45;&gt;15</title>
<path fill="none" stroke="#000000" d="M701.3237,-238.9891C714.2659,-226.8971 728.193,-213.8849 741.0478,-201.8746"/>
<polygon fill="#000000" stroke="#000000" points="743.5594,-204.318 748.477,-194.9335 738.7805,-199.2031 743.5594,-204.318"/>
</g>
</g>
</svg>
