<?xml version="1.0" encoding="UTF-8" standalone="no"?>
<!DOCTYPE svg PUBLIC "-//W3C//DTD SVG 1.1//EN"
 "http://www.w3.org/Graphics/SVG/1.1/DTD/svg11.dtd">
<!-- Generated by graphviz version 2.40.1 (20161225.0304)
 -->
<!-- Title: Tree Pages: 1 -->
<svg width="321pt" height="400pt"
 viewBox="0.00 0.00 320.54 400.00" xmlns="http://www.w3.org/2000/svg" xmlns:xlink="http://www.w3.org/1999/xlink">
<g id="graph0" class="graph" transform="scale(1 1) rotate(0) translate(4 396)">
<title>Tree</title>
<polygon fill="#ffffff" stroke="transparent" points="-4,4 -4,-396 316.5356,-396 316.5356,4 -4,4"/>
<!-- 0 -->
<g id="node1" class="node">
<title>0</title>
<polygon fill="none" stroke="#000000" points="149.8045,-392.1003 51.7311,-392.1003 51.7311,-316.6997 149.8045,-316.6997 149.8045,-392.1003"/>
<text text-anchor="middle" x="100.7678" y="-375.4" font-family="Times,serif" font-size="14.00" fill="#000000">X[1] &lt;= 1.635</text>
<text text-anchor="middle" x="100.7678" y="-358.6" font-family="Times,serif" font-size="14.00" fill="#000000">gini = 0.494</text>
<text text-anchor="middle" x="100.7678" y="-341.8" font-family="Times,serif" font-size="14.00" fill="#000000">samples = 18</text>
<text text-anchor="middle" x="100.7678" y="-325" font-family="Times,serif" font-size="14.00" fill="#000000">value = [10, 8]</text>
</g>
<!-- 1 -->
<g id="node2" class="node">
<title>1</title>
<polygon fill="none" stroke="#000000" points="91.3046,-272.6014 .231,-272.6014 .231,-213.7986 91.3046,-213.7986 91.3046,-272.6014"/>
<text text-anchor="middle" x="45.7678" y="-255.8" font-family="Times,serif" font-size="14.00" fill="#000000">gini = 0.0</text>
<text text-anchor="middle" x="45.7678" y="-239" font-family="Times,serif" font-size="14.00" fill="#000000">samples = 6</text>
<text text-anchor="middle" x="45.7678" y="-222.2" font-family="Times,serif" font-size="14.00" fill="#000000">value = [6, 0]</text>
</g>
<!-- 0&#45;&gt;1 -->
<g id="edge1" class="edge">
<title>0&#45;&gt;1</title>
<path fill="none" stroke="#000000" d="M82.1473,-316.7528C76.5962,-305.5295 70.5044,-293.213 64.92,-281.9222"/>
<polygon fill="#000000" stroke="#000000" points="67.9421,-280.1377 60.3714,-272.7258 61.6676,-283.2411 67.9421,-280.1377"/>
<text text-anchor="middle" x="52.3632" y="-292.2085" font-family="Times,serif" font-size="14.00" fill="#000000">True</text>
</g>
<!-- 2 -->
<g id="node3" class="node">
<title>2</title>
<polygon fill="none" stroke="#000000" points="201.3046,-280.9003 110.231,-280.9003 110.231,-205.4997 201.3046,-205.4997 201.3046,-280.9003"/>
<text text-anchor="middle" x="155.7678" y="-264.2" font-family="Times,serif" font-size="14.00" fill="#000000">X[0] &lt;= 0.5</text>
<text text-anchor="middle" x="155.7678" y="-247.4" font-family="Times,serif" font-size="14.00" fill="#000000">gini = 0.444</text>
<text text-anchor="middle" x="155.7678" y="-230.6" font-family="Times,serif" font-size="14.00" fill="#000000">samples = 12</text>
<text text-anchor="middle" x="155.7678" y="-213.8" font-family="Times,serif" font-size="14.00" fill="#000000">value = [4, 8]</text>
</g>
<!-- 0&#45;&gt;2 -->
<g id="edge2" class="edge">
<title>0&#45;&gt;2</title>
<path fill="none" stroke="#000000" d="M119.3883,-316.7528C123.6441,-308.1483 128.2178,-298.9011 132.637,-289.9664"/>
<polygon fill="#000000" stroke="#000000" points="135.8703,-291.3237 137.1665,-280.8085 129.5958,-288.2203 135.8703,-291.3237"/>
<text text-anchor="middle" x="145.1747" y="-300.2911" font-family="Times,serif" font-size="14.00" fill="#000000">False</text>
</g>
<!-- 3 -->
<g id="node4" class="node">
<title>3</title>
<polygon fill="none" stroke="#000000" points="145.3046,-161.4014 54.231,-161.4014 54.231,-102.5986 145.3046,-102.5986 145.3046,-161.4014"/>
<text text-anchor="middle" x="99.7678" y="-144.6" font-family="Times,serif" font-size="14.00" fill="#000000">gini = 0.0</text>
<text text-anchor="middle" x="99.7678" y="-127.8" font-family="Times,serif" font-size="14.00" fill="#000000">samples = 4</text>
<text text-anchor="middle" x="99.7678" y="-111" font-family="Times,serif" font-size="14.00" fill="#000000">value = [0, 4]</text>
</g>
<!-- 2&#45;&gt;3 -->
<g id="edge3" class="edge">
<title>2&#45;&gt;3</title>
<path fill="none" stroke="#000000" d="M136.8088,-205.5528C131.1568,-194.3295 124.9542,-182.013 119.2682,-170.7222"/>
<polygon fill="#000000" stroke="#000000" points="122.2608,-168.883 114.6369,-161.5258 116.0088,-172.0315 122.2608,-168.883"/>
</g>
<!-- 4 -->
<g id="node5" class="node">
<title>4</title>
<polygon fill="none" stroke="#000000" points="259.9852,-169.7003 163.5504,-169.7003 163.5504,-94.2997 259.9852,-94.2997 259.9852,-169.7003"/>
<text text-anchor="middle" x="211.7678" y="-153" font-family="Times,serif" font-size="14.00" fill="#000000">X[1] &lt;= 1.745</text>
<text text-anchor="middle" x="211.7678" y="-136.2" font-family="Times,serif" font-size="14.00" fill="#000000">gini = 0.5</text>
<text text-anchor="middle" x="211.7678" y="-119.4" font-family="Times,serif" font-size="14.00" fill="#000000">samples = 8</text>
<text text-anchor="middle" x="211.7678" y="-102.6" font-family="Times,serif" font-size="14.00" fill="#000000">value = [4, 4]</text>
</g>
<!-- 2&#45;&gt;4 -->
<g id="edge4" class="edge">
<title>2&#45;&gt;4</title>
<path fill="none" stroke="#000000" d="M174.7268,-205.5528C179.06,-196.9483 183.7169,-187.7011 188.2164,-178.7664"/>
<polygon fill="#000000" stroke="#000000" points="191.4564,-180.1141 192.8283,-169.6085 185.2044,-176.9656 191.4564,-180.1141"/>
</g>
<!-- 5 -->
<g id="node6" class="node">
<title>5</title>
<polygon fill="none" stroke="#000000" points="202.3046,-58.6014 111.231,-58.6014 111.231,.2014 202.3046,.2014 202.3046,-58.6014"/>
<text text-anchor="middle" x="156.7678" y="-41.8" font-family="Times,serif" font-size="14.00" fill="#000000">gini = 0.0</text>
<text text-anchor="middle" x="156.7678" y="-25" font-family="Times,serif" font-size="14.00" fill="#000000">samples = 4</text>
<text text-anchor="middle" x="156.7678" y="-8.2" font-family="Times,serif" font-size="14.00" fill="#000000">value = [4, 0]</text>
</g>
<!-- 4&#45;&gt;5 -->
<g id="edge5" class="edge">
<title>4&#45;&gt;5</title>
<path fill="none" stroke="#000000" d="M191.6001,-94.3048C186.9128,-85.5437 181.9188,-76.2096 177.2194,-67.4259"/>
<polygon fill="#000000" stroke="#000000" points="180.2574,-65.6849 172.4538,-58.5186 174.0853,-68.9871 180.2574,-65.6849"/>
</g>
<!-- 6 -->
<g id="node7" class="node">
<title>6</title>
<polygon fill="none" stroke="#000000" points="312.3046,-58.6014 221.231,-58.6014 221.231,.2014 312.3046,.2014 312.3046,-58.6014"/>
<text text-anchor="middle" x="266.7678" y="-41.8" font-family="Times,serif" font-size="14.00" fill="#000000">gini = 0.0</text>
<text text-anchor="middle" x="266.7678" y="-25" font-family="Times,serif" font-size="14.00" fill="#000000">samples = 4</text>
<text text-anchor="middle" x="266.7678" y="-8.2" font-family="Times,serif" font-size="14.00" fill="#000000">value = [0, 4]</text>
</g>
<!-- 4&#45;&gt;6 -->
<g id="edge6" class="edge">
<title>4&#45;&gt;6</title>
<path fill="none" stroke="#000000" d="M231.9355,-94.3048C236.6228,-85.5437 241.6168,-76.2096 246.3162,-67.4259"/>
<polygon fill="#000000" stroke="#000000" points="249.4503,-68.9871 251.0818,-58.5186 243.2782,-65.6849 249.4503,-68.9871"/>
</g>
</g>
</svg>
